<svg xmlns="http://www.w3.org/2000/svg" viewBox="0 0 80.59 80.59"><defs><style>.cls-1{fill:#f3f3f3;}.cls-2{fill:none;stroke:#E3323A;stroke-miterlimit:10;stroke-width:0.75px;}</style></defs><title>Asset 7</title><g id="Layer_2" data-name="Layer 2"><g id="Layer_1-2" data-name="Layer 1"><circle class="cls-1" cx="40.3" cy="40.3" r="40.3"/><path class="cls-2" d="M62.16,40.39,60.82,62.75H19.89L18.36,39.26a2.19,2.19,0,0,1,.2.44c.82,2.31,0,5.09,1.78,4.81s1.9-1.6,1.67-2.71a13.32,13.32,0,0,0-.6-1.62A1.19,1.19,0,0,1,21.73,39,2.7,2.7,0,0,1,24,38.76a2.09,2.09,0,0,1,.68.25c1.55,1,.73,3.81.72,3.87h0s-2.43,4.46.76,5.39c2.81.82,2-3.41,1.9-4.8a1.61,1.61,0,0,1,0-.39c.15-.57,2-3.6,2.93-2.31s-.27,3.13,2.11,3.4h0l.17,0h0c2.63.2,2.33-3,2.9-4.19.22-.45,1.6-1.37,1.28,1.54-.11,1.1-.28,2.1-.29,2.91,0,1.32.34,2.12,1.94,2,1-.06,1.67-.93,2.11-2A15,15,0,0,0,42,40.87c.11-.5.77-1.95,1.64,1.23s1.28-1.9,1.54-2.62a1.8,1.8,0,0,1,.31-.47c.19-.17.42-.26.61,0a3.65,3.65,0,0,1,.37,1.76c.06,1.11,0,2.36.09,3.49.09,1.88.35,3.38,1.45,3.19,1.41-.25,2.75-.93,2.79-3.69a13.11,13.11,0,0,0-.22-2.38,5.09,5.09,0,0,1,0-2.37c.43-1.25,1.77-.6,2.34,0a1.15,1.15,0,0,1,.24.37c.31,1-.73,2.52-.71,4.1,0,.75.19,1.29.71,1.24.79-.07,1.37-.93,1.76-1.77s.34-1.35.6-1.72.38-.25.65,1.39c0,.17,0,.35.07.56.14,1.24.66.24,1.09-.92.36-.95.66-2,.66-2s.55-1.14.92,1.41-.88,5.93,1.21,5.63C61.68,47.06,61.47,43.86,62.16,40.39Z"/><path class="cls-2" d="M62.8,38a4.68,4.68,0,0,1-.34,1.13c-.12.42-.21.83-.3,1.25-.69,3.47-.48,6.67-2,6.9-2.09.3-.85-3.08-1.21-5.63S58,40.25,58,40.25s-.3,1.06-.66,2c-.43,1.16-1,2.16-1.09.92,0-.21,0-.39-.07-.56-.27-1.64-.43-1.71-.65-1.39s-.19.85-.6,1.72-1,1.7-1.76,1.77c-.52.05-.7-.49-.71-1.24,0-1.58,1-3.11.71-4.1a1.15,1.15,0,0,0-.24-.37c-.57-.6-1.91-1.25-2.34,0a5.09,5.09,0,0,0,0,2.37,13.11,13.11,0,0,1,.22,2.38c0,2.76-1.38,3.44-2.79,3.69-1.1.19-1.36-1.31-1.45-3.19,0-1.13,0-2.38-.09-3.49A3.65,3.65,0,0,0,46.12,39c-.19-.26-.42-.17-.61,0a1.8,1.8,0,0,0-.31.47c-.26.72-.66,5.81-1.54,2.62S42.13,40.37,42,40.87a15,15,0,0,1-.82,3.64c-.44,1-1.11,1.9-2.11,2-1.6.1-2-.7-1.94-2,0-.81.18-1.81.29-2.91.32-2.91-1.06-2-1.28-1.54-.57,1.14-.27,4.39-2.9,4.19h0l-.17,0h0C30.7,43.9,31.87,42,31,40.77S28.19,42.51,28,43.08a1.61,1.61,0,0,0,0,.39c.12,1.39.91,5.62-1.9,4.8-3.19-.93-.76-5.39-.76-5.39h0c0-.06.83-2.92-.72-3.87a2.09,2.09,0,0,0-.68-.25,2.7,2.7,0,0,0-2.25.25,1.19,1.19,0,0,0-.32,1.17A13.32,13.32,0,0,1,22,41.8c.23,1.11.11,2.43-1.67,2.71s-1-2.5-1.78-4.81a2.19,2.19,0,0,0-.2-.44A2.78,2.78,0,0,1,17.8,38a2.92,2.92,0,0,1,1.29-2.18h0c3.1-2.52,11.42-4.32,21.21-4.32,10.9,0,20,2.24,22.06,5.22A2.22,2.22,0,0,1,62.8,38Z"/><path class="cls-2" d="M39.09,56.8h-.17"/><path class="cls-2" d="M19.36,54.58S31.48,57.84,47.93,52s13.49.7,13.49.7"/><path class="cls-2" d="M19.56,57.57s12.12,3.26,28.57-2.63,13.12.68,13.12.68"/><circle class="cls-2" cx="27.24" cy="52.49" r="0.65"/><circle class="cls-2" cx="33.81" cy="48.37" r="1.13"/><circle class="cls-2" cx="47.72" cy="59.67" r="1.13"/><circle class="cls-2" cx="43.89" cy="49.5" r="0.52"/><circle class="cls-2" cx="53.61" cy="46.15" r="0.52"/><circle class="cls-2" cx="30.11" cy="60.19" r="0.52"/><circle class="cls-2" cx="53.09" cy="55.48" r="0.52"/><path class="cls-2" d="M35.72,22.72A3.84,3.84,0,0,0,34.2,23c-.24,0-.33-.25-.33-.62a3.05,3.05,0,0,1,.69-2,3.28,3.28,0,0,1,1-.14,19.15,19.15,0,0,1,2.53.23c.29,0,.46-1.86.46-2.07s-.17-.19-.32-.19h-2.9a2.18,2.18,0,0,0,.82-1.84,2.57,2.57,0,0,0-.9-2.12,9.37,9.37,0,0,0-.89,2.12,2,2,0,0,0,.8,1.84H32.93c-.66,0-1.1,3.66-1.1,6,0,.94.52,1.14.93,1.14s1-.77,2.1-.77a1.92,1.92,0,0,1,2,2.05,1.73,1.73,0,0,1-1.87,1.79c-1.66,0-1.82-1.15-2.27-1.15-.27,0-1.24,2.32-1.24,2.45,0,.34,1.13,1.51,3.23,1.51a4.21,4.21,0,0,0,4.46-4.57C39.12,24.62,38,22.72,35.72,22.72Z"/><path class="cls-2" d="M45.1,17.94C43,17.94,41,20.06,41,24.6S43,31.24,45.1,31.24s4.06-2.1,4.06-6.64S47.21,17.94,45.1,17.94Zm0,10.49c-.83,0-1.76-1-1.76-4.08,0-3.75,1-4.27,1.76-4.27s1.75.52,1.75,4.27C46.85,27.45,45.92,28.43,45.1,28.43Z"/><path class="cls-2" d="M45.1,17.94a2.12,2.12,0,0,0,.9-1.89,2.57,2.57,0,0,0-.9-2.12,9.37,9.37,0,0,0-.89,2.12A1.92,1.92,0,0,0,45.1,17.94Z"/></g></g></svg>