<svg xmlns="http://www.w3.org/2000/svg" viewBox="0 0 80.59 80.59"><defs><style>.cls-1{fill:#f3f3f3;}.cls-2,.cls-4{fill:none;stroke:#E3323A;stroke-miterlimit:10;}.cls-2{stroke-width:0.75px;}.cls-3{fill:#E3323A;}.cls-4{stroke-width:0.25px;}</style></defs><title>Asset 3</title><g id="Layer_2" data-name="Layer 2"><g id="Layer_1-2" data-name="Layer 1"><circle class="cls-1" cx="40.3" cy="40.3" r="40.3"/><path class="cls-2" d="M22.6,47.69c-.39-.48-.15-2.44-.15-3.12V36.89a2.7,2.7,0,0,1,2.62-2.75H55.34A2.7,2.7,0,0,1,58,36.89v7.68c0,.57.28,2.68,0,3.12Z"/><path class="cls-2" d="M15.61,63.3c-.55-.56-.21-2.83-.21-3.61V50.8a3.46,3.46,0,0,1,3.67-3.18H61.45a3.46,3.46,0,0,1,3.67,3.18v8.89c0,.65.4,3.1,0,3.61Z"/><path class="cls-2" d="M22.45,41.24s2.56-3.56,6-.68,4.67-1.15,7.21-1.08,1.64,2.39,4.78,2.15,2.13-2,5-2,1.31,1.82,4.82,1.87,1.9-2.07,4.89-2.07A2.92,2.92,0,0,1,58,41.1"/><path class="cls-2" d="M15.4,58.23s3.59-4.86,8.37-.92c4.6,3.79,6.53-1.58,10.09-1.48s2.3,3.27,6.69,2.93,3-2.66,7.05-2.66,1.83,2.48,6.75,2.55S57,55.83,61.2,55.83A4.06,4.06,0,0,1,65.12,58"/><path class="cls-3" d="M31.1,20.37a21.39,21.39,0,0,1,.75-3l-.49,0c0-.29.22-.48.66-.58l.6-1.88a1.27,1.27,0,0,0,.1-.37c0-.07,0-.11-.09-.11s-.38.16-.57.48a1.73,1.73,0,0,0-.28.86,2.06,2.06,0,0,0,0,.35c-.39,0-.58-.17-.58-.5a1.44,1.44,0,0,1,.54-1,1.6,1.6,0,0,1,1-.5.37.37,0,0,1,.43.42.61.61,0,0,1-.13.33l-.55,1.87H33a11,11,0,0,1,1.3.07A23.67,23.67,0,0,1,35,14.53a.58.58,0,0,1,.53-.43,27.9,27.9,0,0,0-.77,2.74h.64a1,1,0,0,1-.73.35A13.81,13.81,0,0,0,34.28,20a2.93,2.93,0,0,0,0,.41.81.81,0,0,1-.51-.19.8.8,0,0,1-.14-.53,10.33,10.33,0,0,1,.54-2.45c-.82,0-1.39,0-1.73.05,0,0-.08.07-.11.18l-.23.79-.42,1.61a.68.68,0,0,1-.26.39A.6.6,0,0,1,31.1,20.37Z"/><path class="cls-3" d="M35.09,19.38a2.08,2.08,0,0,1,.31-1,3.15,3.15,0,0,1,.8-.95,1.6,1.6,0,0,1,1-.39.84.84,0,0,1,.53.17.57.57,0,0,1,.21.46c0,.23-.13.36-.39.37.16.06.25.13.25.22a1.57,1.57,0,0,1-.21.47,1.45,1.45,0,0,0-.2.56c0,.19.07.28.22.28a.88.88,0,0,0,.53-.3,3.18,3.18,0,0,0,.63-.91l.14.15a3.24,3.24,0,0,1-.68,1,1.24,1.24,0,0,1-.83.4.54.54,0,0,1-.45-.21.81.81,0,0,1-.16-.48,4.06,4.06,0,0,1-.57.62.75.75,0,0,1-.5.19.57.57,0,0,1-.43-.18A.68.68,0,0,1,35.09,19.38Zm.59,0q0,.24.18.24a.53.53,0,0,0,.2-.05,1.12,1.12,0,0,0,.23-.18l.23-.23a2.82,2.82,0,0,0,.25-.3l.22-.3.22-.3.17-.26a.09.09,0,0,1,.06,0h0a1.2,1.2,0,0,0,0-.28c0-.27-.1-.41-.31-.41s-.66.26-1,.76A2.53,2.53,0,0,0,35.68,19.42Z"/><path class="cls-3" d="M37.86,21.69c.31-.94.51-1.65.62-2.14s.23-1.34.38-2.57a.77.77,0,0,1,0-.1.12.12,0,0,1,.05-.05.21.21,0,0,1,.12,0,.42.42,0,0,1,.33.13.49.49,0,0,1,.11.31,4.76,4.76,0,0,1-.11.71,1.51,1.51,0,0,1,1.21-.85.81.81,0,0,1,.6.24.88.88,0,0,1,.24.65,1.86,1.86,0,0,1-.22.86,2.09,2.09,0,0,1-.65.78,1.54,1.54,0,0,1-.93.32,1,1,0,0,1-.38-.06c-.09,0-.14-.08-.14-.14s.06-.07.18-.07a1.44,1.44,0,0,0,1.1-.52,1.59,1.59,0,0,0,.45-1.07.77.77,0,0,0-.11-.42.34.34,0,0,0-.31-.16,1,1,0,0,0-.69.4,2.83,2.83,0,0,0-.51.8c-.07.26-.15.56-.23.91l-.21.88c-.05.24-.11.47-.18.7a2.16,2.16,0,0,1-.2.51c-.08.11-.15.17-.23.17a.32.32,0,0,1-.19-.07A.28.28,0,0,1,37.86,21.69Z"/><path class="cls-3" d="M40.92,21.69c.31-.94.51-1.65.62-2.14s.23-1.34.38-2.57a.77.77,0,0,1,0-.1.12.12,0,0,1,0-.05.21.21,0,0,1,.12,0,.42.42,0,0,1,.33.13.49.49,0,0,1,.11.31,4.76,4.76,0,0,1-.11.71,1.51,1.51,0,0,1,1.21-.85.81.81,0,0,1,.6.24.88.88,0,0,1,.24.65,1.86,1.86,0,0,1-.22.86,2.09,2.09,0,0,1-.65.78,1.52,1.52,0,0,1-.93.32,1,1,0,0,1-.37-.06c-.1,0-.15-.08-.15-.14s.06-.07.18-.07a1.44,1.44,0,0,0,1.1-.52,1.59,1.59,0,0,0,.45-1.07.77.77,0,0,0-.11-.42.33.33,0,0,0-.31-.16,1,1,0,0,0-.69.4,2.83,2.83,0,0,0-.51.8c-.07.26-.15.56-.23.91l-.21.88c0,.24-.11.47-.18.7a2.16,2.16,0,0,1-.2.51c-.08.11-.15.17-.23.17a.32.32,0,0,1-.19-.07A.28.28,0,0,1,40.92,21.69Z"/><path class="cls-3" d="M44.55,21.37a.71.71,0,0,1,.1-.37,1.46,1.46,0,0,1,.22-.3,2.23,2.23,0,0,1,.37-.27l.38-.22L46,20c.08-.22.2-.62.35-1.21-.38.57-.73.85-1.06.85a.67.67,0,0,1-.45-.16.57.57,0,0,1-.19-.49,2.9,2.9,0,0,1,.25-1c.17-.43.32-.64.44-.64a.59.59,0,0,1,.22.08c.1.06.16.11.18.18a2.67,2.67,0,0,0-.31.67,2.53,2.53,0,0,0-.17.75c0,.19.07.29.21.29h0c.27,0,.6-.32,1-.94a.8.8,0,0,0,0-.18,1.86,1.86,0,0,1,0-.27.51.51,0,0,1,.14-.21.33.33,0,0,1,.25-.11l.23,0a4.87,4.87,0,0,1-.17.84c-.11.44-.24.86-.39,1.28a2.17,2.17,0,0,0,1.19-1.32l.13.11A2.41,2.41,0,0,1,46.54,20c-.5,1.25-1,1.87-1.49,1.87a.48.48,0,0,1-.5-.51Zm.29,0c0,.14,0,.21.14.21s.24-.11.41-.32a4.63,4.63,0,0,0,.5-.91Q44.84,20.89,44.84,21.37Z"/><path class="cls-3" d="M27.83,26.72s0-.08.08-.08l.1,0a.89.89,0,0,0,.23.05,2.17,2.17,0,0,0,.38,0,3.89,3.89,0,0,0,2.1-.52A1.46,1.46,0,0,0,31.57,25c0-.61-.62-.92-1.85-.92h-.55l-.32,1.25c-.15.56-.26,1-.34,1.2a.62.62,0,0,1-.38-.12.37.37,0,0,1-.15-.3,1.08,1.08,0,0,1,.07-.36l0-.09.15-.48.26-.84.31-.95c.12-.36.25-.71.38-1.05s.27-.63.39-.88a2.88,2.88,0,0,0-.47.16,2.38,2.38,0,0,0-.33.17.46.46,0,0,1-.16.06.29.29,0,0,1-.19-.11.3.3,0,0,1-.11-.18l.56-.22a4.49,4.49,0,0,1,.57-.15,4.42,4.42,0,0,1,.74-.07,3.59,3.59,0,0,1,.47,0,2.51,2.51,0,0,1,.49.1,1.5,1.5,0,0,1,.46.21,1.06,1.06,0,0,1,.32.37,1.09,1.09,0,0,1,.13.55c0,.73-.52,1.22-1.56,1.48a2.2,2.2,0,0,1,1.22.47,1.05,1.05,0,0,1,.39.78,1.52,1.52,0,0,1-.36,1,2.41,2.41,0,0,1-.87.71,5.83,5.83,0,0,1-1.09.42,4.44,4.44,0,0,1-1,.14C28.14,27.39,27.83,27.17,27.83,26.72Zm1.4-2.9a4.09,4.09,0,0,0,.82-.1,3.4,3.4,0,0,0,.72-.25,1.34,1.34,0,0,0,.52-.45,1.09,1.09,0,0,0,.19-.66c0-.62-.47-.93-1.4-.93A15.22,15.22,0,0,0,29.23,23.82Z"/><path class="cls-3" d="M32.28,26.3a2.77,2.77,0,0,1,.16-.82,3.8,3.8,0,0,1,.42-.94c.18-.28.35-.42.52-.42a.21.21,0,0,1,.16.06.18.18,0,0,1,.07.16,1.38,1.38,0,0,1-.19.43,8.14,8.14,0,0,0-.38.73,1.68,1.68,0,0,0-.19.71.48.48,0,0,0,.08.32.32.32,0,0,0,.25.09c.39,0,.78-.4,1.16-1.19l.11.12a2.68,2.68,0,0,1-.66,1.06,1.18,1.18,0,0,1-.85.38.63.63,0,0,1-.49-.19A.76.76,0,0,1,32.28,26.3Zm1.16-3.12a.37.37,0,0,1,.19-.31.67.67,0,0,1,.4-.14c.21,0,.32.1.32.29a.46.46,0,0,1-.17.32.57.57,0,0,1-.37.15.48.48,0,0,1-.27-.08A.26.26,0,0,1,33.44,23.18Z"/><path class="cls-3" d="M34.14,25.74a8.3,8.3,0,0,0,.6-1.41.33.33,0,0,1-.07-.21.76.76,0,0,1,.11-.38c.08-.12.15-.18.22-.18a.19.19,0,0,1,.14.1.37.37,0,0,1,0,.15,1.07,1.07,0,0,1,0,.16.81.81,0,0,0-.06.13s.05.1.14.17l.28.19a.87.87,0,0,1,.27.27.76.76,0,0,1,.13.41,1.85,1.85,0,0,1-.2.69,2,2,0,0,0-.2.56.17.17,0,0,0,.19.18,1.12,1.12,0,0,0,.73-.39,2.59,2.59,0,0,0,.56-.76l.18.14a2.57,2.57,0,0,1-.71,1,1.43,1.43,0,0,1-1,.43.63.63,0,0,1-.44-.15.52.52,0,0,1-.17-.42,2.11,2.11,0,0,1,.21-.71,2.38,2.38,0,0,0,.2-.67.59.59,0,0,0-.36-.5A9.25,9.25,0,0,1,34.25,26Z"/><path class="cls-3" d="M36.79,26.29a6.07,6.07,0,0,1,.43-1.87l-.27-.1v-.24l.19,0,.17,0A9.12,9.12,0,0,1,38,22.7c.24-.39.44-.59.6-.59a.2.2,0,0,1,.15.06.17.17,0,0,1,.07.14,1.79,1.79,0,0,1-.22.58c-.15.29-.31.6-.48.9l-.27.5a4.6,4.6,0,0,0,.69.07,4.8,4.8,0,0,0,1-.12,11.68,11.68,0,0,1,1-2.1c.37-.62.66-.93.89-.93s.16.05.21.17a.79.79,0,0,1,.08.38,3,3,0,0,1-.49,1.42A3.7,3.7,0,0,1,40,24.43a4.67,4.67,0,0,0-.24.88,5.12,5.12,0,0,0-.11.86c.45-1.19,1-1.78,1.51-1.78a.6.6,0,0,1,.48.2.78.78,0,0,1,.17.5,2.06,2.06,0,0,1-.16.69,2.45,2.45,0,0,0-.15.6c0,.17.07.26.2.26s.36-.13.6-.4a2.92,2.92,0,0,0,.56-.89l.14.14a3.18,3.18,0,0,1-.65,1.05,1.18,1.18,0,0,1-.83.41.54.54,0,0,1-.43-.16.5.5,0,0,1-.16-.39,2.79,2.79,0,0,1,.11-.57,2.74,2.74,0,0,0,.11-.58c0-.23-.09-.35-.26-.35s-.32.12-.47.34a3.86,3.86,0,0,0-.35.74,3.81,3.81,0,0,1-.3.74c-.12.23-.23.34-.34.34s-.22-.12-.28-.35a2.51,2.51,0,0,1-.09-.63,2.71,2.71,0,0,1-.7.76,1.43,1.43,0,0,1-.84.28.74.74,0,0,1-.55-.21A.89.89,0,0,1,36.79,26.29Zm.57-.18a.92.92,0,0,0,.08.47.32.32,0,0,0,.31.14,1.08,1.08,0,0,0,.75-.35,2.77,2.77,0,0,0,.64-.95,5.41,5.41,0,0,1,.24-.86,4.3,4.3,0,0,1-.84.09,3.83,3.83,0,0,1-.81-.08A3.86,3.86,0,0,0,37.36,26.11Zm2.79-2.18A3.79,3.79,0,0,0,41,22.88a2.25,2.25,0,0,0,.34-.93c-.1,0-.28.24-.53.64A6.37,6.37,0,0,0,40.15,23.93Z"/><path class="cls-3" d="M42.58,26.28a2.13,2.13,0,0,1,.3-1,3.41,3.41,0,0,1,.81-1,1.58,1.58,0,0,1,1-.42c.25,0,.37.08.37.25a.18.18,0,0,1-.09.18.33.33,0,0,0-.26-.08,1,1,0,0,0-.74.36,2.62,2.62,0,0,0-.56.81,1.91,1.91,0,0,0-.19.75q0,.33.24.33t.78-.57a5.12,5.12,0,0,0,.8-1.48l.29-.77.29-.73c.12-.3.22-.54.3-.71s.18-.36.28-.54a1.69,1.69,0,0,1,.28-.41.32.32,0,0,1,.24-.13.17.17,0,0,1,.14.07.23.23,0,0,1,.06.16,2.78,2.78,0,0,1-.26.75l-.57,1.24a12.69,12.69,0,0,0-.58,1.46,4.44,4.44,0,0,0-.27,1.37.49.49,0,0,0,0,.25.11.11,0,0,0,.11.07,1,1,0,0,0,.58-.31,2.69,2.69,0,0,0,.57-.84l.14.13a2.77,2.77,0,0,1-.68,1,1.24,1.24,0,0,1-.85.4q-.54,0-.54-.69a3,3,0,0,1,.06-.5,4,4,0,0,1-.75.89,1.14,1.14,0,0,1-.71.33.61.61,0,0,1-.43-.18A.69.69,0,0,1,42.58,26.28Z"/><path class="cls-3" d="M46.14,26.43a2,2,0,0,1,.31-1,3.17,3.17,0,0,1,.8-.95,1.6,1.6,0,0,1,1-.39.77.77,0,0,1,.53.17.57.57,0,0,1,.21.45c0,.24-.13.37-.39.38.17.05.25.13.25.22a1.57,1.57,0,0,1-.21.47,1.45,1.45,0,0,0-.2.56c0,.19.07.28.22.28a.88.88,0,0,0,.53-.3,3.13,3.13,0,0,0,.63-.91l.14.15a3.08,3.08,0,0,1-.68,1,1.21,1.21,0,0,1-.83.39.56.56,0,0,1-.45-.2.81.81,0,0,1-.15-.48,4.41,4.41,0,0,1-.58.61.76.76,0,0,1-.5.2.57.57,0,0,1-.43-.18A.69.69,0,0,1,46.14,26.43Zm.6,0c0,.17,0,.25.17.25a.41.41,0,0,0,.2-.06,1,1,0,0,0,.23-.17l.23-.23a3.22,3.22,0,0,0,.26-.31l.21-.29.22-.3.17-.26a.1.1,0,0,1,.07,0h0a1.19,1.19,0,0,0,0-.29c0-.26-.11-.4-.32-.4s-.66.25-1,.76A2.51,2.51,0,0,0,46.74,26.47Z"/><path class="cls-3" d="M49.48,28.43a.71.71,0,0,1,.1-.37,1.46,1.46,0,0,1,.22-.3,2.19,2.19,0,0,1,.37-.28l.39-.21.4-.21c.08-.22.2-.62.35-1.21-.38.57-.73.85-1.06.85a.65.65,0,0,1-.44-.16.58.58,0,0,1-.2-.49A3,3,0,0,1,49.87,25c.16-.43.31-.64.43-.64a.45.45,0,0,1,.22.08.33.33,0,0,1,.18.17,2.77,2.77,0,0,0-.31.68,2.46,2.46,0,0,0-.16.75c0,.19.06.28.2.28h0c.28,0,.6-.31,1-.94a.63.63,0,0,0,0-.17c0-.11,0-.2,0-.27a.51.51,0,0,1,.14-.21.34.34,0,0,1,.25-.11l.23,0a4.74,4.74,0,0,1-.17.85c-.11.44-.24.86-.39,1.28a2.2,2.2,0,0,0,1.19-1.32l.13.11a2.41,2.41,0,0,1-1.41,1.5c-.5,1.25-1,1.87-1.49,1.87a.56.56,0,0,1-.35-.13A.49.49,0,0,1,49.48,28.43Zm.29,0c0,.14,0,.21.14.21s.24-.11.41-.33a4.35,4.35,0,0,0,.5-.91C50.12,27.77,49.77,28.11,49.77,28.43Z"/><path class="cls-4" d="M53.36,25l-.12-.11a1,1,0,0,0-.35-.17.79.79,0,0,0-.66-.81l-.34,0a1.07,1.07,0,0,0-.65.21,1.07,1.07,0,0,0-.36-.3,1.18,1.18,0,0,0-.58-.17,1,1,0,0,0-.77.42,1.45,1.45,0,0,0-1.3-.69,2.28,2.28,0,0,0-1.44.55l-.13.12c0-.08.07-.16.1-.23l.57-1.24a2.67,2.67,0,0,0,.35-1.1,1.1,1.1,0,0,0-.29-.73l-.15-.13a3,3,0,0,0,1.44-1.79.83.83,0,0,0-.25-.85l-.12-.1a.76.76,0,0,0-.35-.17.8.8,0,0,0-.66-.82l-.34,0a1.14,1.14,0,0,0-.65.21,1.37,1.37,0,0,0-.36-.3,1.18,1.18,0,0,0-.58-.17.87.87,0,0,0-.61.25,1.59,1.59,0,0,0-1.12-.45,1.9,1.9,0,0,0-.63.11l0,0A1.15,1.15,0,0,0,42.1,16a1,1,0,0,0-.51.14,1,1,0,0,0-.31.32,1.63,1.63,0,0,0-.7-.16,1.9,1.9,0,0,0-.63.11l0,0A1.15,1.15,0,0,0,39,16a1,1,0,0,0-.51.14.93.93,0,0,0-.36.42h0a1.54,1.54,0,0,0-1-.34,2.16,2.16,0,0,0-1,.29.76.76,0,0,0-.37-.38c.18-.67.35-1.26.53-1.77a.82.82,0,0,0-.09-.73.74.74,0,0,0-.63-.34,1.33,1.33,0,0,0-1.23.92c-.16.39-.35.95-.58,1.72H33.6l.22-.73a1.36,1.36,0,0,0,.2-.68,1.16,1.16,0,0,0-1.2-1.22,2.3,2.3,0,0,0-1.53.7,2.18,2.18,0,0,0-.81,1.62,1.31,1.31,0,0,0,.39,1,1.32,1.32,0,0,0-.27.8.84.84,0,0,0,.26.61,19,19,0,0,0-.52,2.27v.12h-.16a4.24,4.24,0,0,0-.88.09,3.72,3.72,0,0,0-.68.17q-.23.07-.6.24a.8.8,0,0,0-.47.74,1.07,1.07,0,0,0,.35.76,1.09,1.09,0,0,0,.37.26l-.19.55-.32,1-.39,1.27a.66.66,0,0,1,0,.11,2,2,0,0,0-.12.64v.07a1,1,0,0,0-.15.51,1.48,1.48,0,0,0,1.69,1.46A5,5,0,0,0,30,28a5.85,5.85,0,0,0,1.24-.47,3.17,3.17,0,0,0,.58-.37.91.91,0,0,0,.11.16,1.35,1.35,0,0,0,1,.45,1.94,1.94,0,0,0,1.37-.58l0-.05a1.22,1.22,0,0,0,.2.25,1.39,1.39,0,0,0,1,.35,1.89,1.89,0,0,0,1-.27,1.46,1.46,0,0,0,1.07.43,2.19,2.19,0,0,0,1.21-.38.94.94,0,0,0,1.11.23v5.84a.51.51,0,1,0,1,0v-6a1.3,1.3,0,0,0,.67.17,1.67,1.67,0,0,0,.86-.24,1.35,1.35,0,0,0,.81.28,1.75,1.75,0,0,0,1-.39,1.24,1.24,0,0,0,.9.36,1.78,1.78,0,0,0,.74-.17,1.31,1.31,0,0,0,.87.33,1.56,1.56,0,0,0,1-.34,1.3,1.3,0,0,0,.73.21,1.76,1.76,0,0,0,.46-.06,1.55,1.55,0,0,0-.18.7,1.3,1.3,0,0,0,.43,1,1.26,1.26,0,0,0,.84.32c1,0,1.66-1.12,2.07-2.08a3.06,3.06,0,0,0,1.56-1.86A.82.82,0,0,0,53.36,25Z"/><path class="cls-3" d="M19.6,53.27a3.72,3.72,0,0,1,1.06-1.6"/><path class="cls-3" d="M20.2,53.44a3.28,3.28,0,0,1,.9-1.33c.59-.55-.3-1.43-.89-.88A4.78,4.78,0,0,0,19,53.1c-.27.76.94,1.09,1.21.34Z"/><path class="cls-3" d="M36.23,51.45l.62,1.31"/><path class="cls-3" d="M35.69,51.76l.62,1.31c.35.73,1.43.09,1.08-.63l-.62-1.31c-.34-.73-1.42-.09-1.08.63Z"/><path class="cls-3" d="M27.5,55.05l.65-.95"/><path class="cls-3" d="M28,55.36l.65-1c.45-.67-.63-1.29-1.08-.63l-.65.95c-.45.67.63,1.29,1.08.63Z"/><path class="cls-3" d="M53,52.81a2.8,2.8,0,0,1,1.17,1.69"/><path class="cls-3" d="M52.65,53.35a2.23,2.23,0,0,1,.88,1.32.63.63,0,0,0,1.21-.33,3.59,3.59,0,0,0-1.46-2.07c-.66-.46-1.29.62-.63,1.08Z"/><path class="cls-3" d="M59.37,51.29l.67.81"/><path class="cls-3" d="M58.93,51.73l.67.81c.52.62,1.4-.27.89-.88l-.68-.82c-.51-.62-1.39.27-.88.89Z"/><path class="cls-3" d="M41.73,53.33l.64.93"/><path class="cls-3" d="M41.19,53.65l.65.92c.45.66,1.53,0,1.07-.63L42.27,53c-.45-.65-1.53,0-1.08.64Z"/><path class="cls-3" d="M46.43,51.6l.55.61"/><path class="cls-3" d="M46,52l.55.61c.54.6,1.42-.29.89-.88l-.56-.61c-.54-.6-1.42.29-.88.88Z"/><path class="cls-3" d="M25.46,37.35l1-1.14"/><path class="cls-3" d="M25.9,37.79l1-1.14c.54-.59-.34-1.48-.88-.88l-1,1.14c-.54.59.34,1.48.88.88Z"/><path class="cls-3" d="M39.29,36.89l.77,1.17"/><path class="cls-3" d="M38.75,37.2l.77,1.18c.44.67,1.52,0,1.08-.63l-.77-1.18c-.44-.67-1.52,0-1.08.63Z"/><path class="cls-3" d="M44.84,36.1a1.1,1.1,0,0,1,.55.61"/><path class="cls-3" d="M44.53,36.64a.71.71,0,0,1,.32.38c.33.74,1.41.1,1.08-.63a1.87,1.87,0,0,0-.77-.83.63.63,0,0,0-.63,1.08Z"/><path class="cls-3" d="M55.29,35.74a1.07,1.07,0,0,1,.54.73"/><path class="cls-3" d="M55,36.28a.51.51,0,0,1,.25.35.62.62,0,0,0,1.2-.33,1.76,1.76,0,0,0-.82-1.1A.63.63,0,0,0,55,36.28Z"/><path class="cls-3" d="M50.59,37.29v.59"/><path class="cls-3" d="M50,37.29v.59a.63.63,0,0,0,1.25,0v-.59a.63.63,0,0,0-1.25,0Z"/><path class="cls-3" d="M32.3,37l-.14,1.17"/><path class="cls-3" d="M31.68,37l-.14,1.17c-.1.79,1.15.79,1.25,0L32.93,37c.1-.79-1.16-.79-1.25,0Z"/><path class="cls-3" d="M27.12,50v1.07"/><path class="cls-3" d="M26.5,50v1.07a.63.63,0,0,0,1.25,0V50a.63.63,0,0,0-1.25,0Z"/></g></g></svg>