<svg id="Layer_1" data-name="Layer 1" xmlns="http://www.w3.org/2000/svg" viewBox="0 0 84 84"><defs><style>.cls-1{fill:#f3f3f3;}.cls-2,.cls-3{fill:none;stroke:#e47277;stroke-miterlimit:10;}.cls-2{stroke-width:0.75px;}.cls-3{stroke-width:0.25px;}</style></defs><title>designer</title><circle class="cls-1" cx="42" cy="42" r="40.3"/><path class="cls-2" d="M47.21,15c1.07,0,1.54.83,1.54,1.9V27.22H35.25V16.93a2,2,0,0,1,1.25-1.82"/><path class="cls-2" d="M30,27.22H54a2.06,2.06,0,0,1,2.06,2.06v11.5a0,0,0,0,1,0,0H27.93a0,0,0,0,1,0,0V29.29A2.06,2.06,0,0,1,30,27.22Z"/><path class="cls-2" d="M24.11,40.79H59.86a2.07,2.07,0,0,1,2.07,2.07V54.36a0,0,0,0,1,0,0H22.06a0,0,0,0,1,0,0V42.84A2.05,2.05,0,0,1,24.11,40.79Z"/><path class="cls-2" d="M17,54.36H66.93A2.08,2.08,0,0,1,69,56.44V67.93a0,0,0,0,1,0,0H15a0,0,0,0,1,0,0V56.42A2.06,2.06,0,0,1,17,54.36Z"/><path class="cls-2" d="M41.88,15.1S36.33,9.92,36.61,14s.25,5.8,1.63,5.79,3.92-1.91,3.92-1.91a24.4,24.4,0,0,1-.63,6.75s-5-2.59.7-7.29c0,0,3.32.74,2.92,5.12,0,0-1.42,2.35-2.08,1.87,0,0-1.14-5.71-.24-7.58,0,0,.37-1.19-.35-1.66,0,0,3.62-5.17,4.74-2,0,0,1.55,11.49-4.39,4C42.83,17.1,40.51,18,41.88,15.1Z"/><path class="cls-2" d="M27.93,33.13s2.17,8.41,4.42,2.13,4.25.64,4.25.64,1.54,5.63,2.83.17,2.89-7,4-3.44,2.09,4.73,2.73,2.63,1.93-6.75,3.54-2.09,2.73,5.47,2.89,3.38,1.93-7.08,3.46-4"/><path class="cls-2" d="M22.06,46.13s3.08,8.41,6.27,2.13,6,.64,6,.64,2.19,5.63,4,.16,4.11-7,5.7-3.43,3,4.73,3.87,2.63,2.74-6.75,5-2.09,3.87,5.47,4.1,3.38,2.73-7.08,4.9-4"/><path class="cls-2" d="M69,60.2s-4.16,8.41-8.49,2.14-8.15.64-8.15.64-3,5.62-5.43.16-5.56-7-7.72-3.44-4,4.73-5.25,2.64-3.7-6.76-6.79-2.1-5.25,5.47-5.56,3.38-3.7-7.08-6.63-4"/><path class="cls-3" d="M19.44,53.35a1.09,1.09,0,0,1,.25-1.47c.43-.2,1,.13,1.29.74s-.25,1.47-.25,1.47S19.72,54,19.44,53.35Z"/><path class="cls-3" d="M18,53.11c-.35-.73-.21-1.51.3-1.75s1.21.15,1.55.88S19.54,54,19.54,54,18.34,53.84,18,53.11Z"/><path class="cls-3" d="M25.59,39.6a1.08,1.08,0,0,1,.25-1.46c.43-.2,1,.13,1.29.74s-.25,1.46-.25,1.46S25.88,40.21,25.59,39.6Z"/><path class="cls-3" d="M24.15,39.37c-.34-.73-.21-1.52.3-1.76s1.21.16,1.55.89-.3,1.75-.3,1.75S24.49,40.1,24.15,39.37Z"/><path class="cls-3" d="M32.83,26.1c-.29-.61-.18-1.27.25-1.47s1,.13,1.29.74-.25,1.47-.25,1.47S33.11,26.71,32.83,26.1Z"/><path class="cls-3" d="M31.38,25.86a1.3,1.3,0,0,1,.31-1.75c.51-.25,1.2.15,1.55.88s-.31,1.76-.31,1.76S31.73,26.59,31.38,25.86Z"/><path class="cls-3" d="M51.22,26.05A1.08,1.08,0,0,0,51,24.59c-.43-.2-1,.13-1.3.74s.26,1.46.26,1.46S50.93,26.66,51.22,26.05Z"/><path class="cls-3" d="M52.66,25.82c.34-.73.21-1.52-.3-1.76s-1.21.16-1.55.89.3,1.75.3,1.75S52.32,26.55,52.66,25.82Z"/><path class="cls-3" d="M58.52,39.56a1.09,1.09,0,0,0-.25-1.47c-.43-.2-1,.13-1.29.74s.25,1.47.25,1.47S58.24,40.17,58.52,39.56Z"/><path class="cls-3" d="M60,39.32c.35-.73.21-1.51-.3-1.75s-1.2.15-1.55.88.31,1.76.31,1.76S59.62,40.05,60,39.32Z"/><path class="cls-3" d="M64.78,53.3c.28-.6.17-1.26-.26-1.46s-1,.13-1.29.74.26,1.46.26,1.46S64.49,53.91,64.78,53.3Z"/><path class="cls-3" d="M66.22,53.07a1.31,1.31,0,0,0-.31-1.76c-.51-.24-1.2.16-1.54.89s.3,1.75.3,1.75S65.87,53.8,66.22,53.07Z"/></svg>