<svg xmlns="http://www.w3.org/2000/svg" viewBox="0 0 80.59 80.59"><defs><style>.cls-1{fill:#f3f3f3;}.cls-2,.cls-3{fill:none;stroke:#E3323A;stroke-miterlimit:10;}.cls-2{stroke-width:0.75px;}.cls-3{stroke-width:0.25px;}</style></defs><title>Asset 8</title><g id="Layer_2" data-name="Layer 2"><g id="Layer_1-2" data-name="Layer 1"><circle class="cls-1" cx="40.3" cy="40.3" r="40.3"/><path class="cls-2" d="M44.93,18.11c1,0,1.37.74,1.37,1.69v9.14h-12V19.8a1.71,1.71,0,0,1,1.11-1.61"/><path class="cls-2" d="M29.86,28.94H50.73A2.06,2.06,0,0,1,52.8,31V41a0,0,0,0,1,0,0h-25a0,0,0,0,1,0,0V31A2.06,2.06,0,0,1,29.86,28.94Z"/><path class="cls-2" d="M24.63,41h31.3A2.07,2.07,0,0,1,58,43.07v10a0,0,0,0,1,0,0H22.58a0,0,0,0,1,0,0v-10A2.05,2.05,0,0,1,24.63,41Z"/><path class="cls-2" d="M18.36,53.05H62.21a2.08,2.08,0,0,1,2.08,2.08v10a0,0,0,0,1,0,0h-48a0,0,0,0,1,0,0v-10A2.06,2.06,0,0,1,18.36,53.05Z"/><path class="cls-2" d="M40.19,18.18s-4.93-4.61-4.68-1,.22,5.15,1.44,5.14,3.49-1.7,3.49-1.7a21.93,21.93,0,0,1-.56,6s-4.48-2.3.62-6.48c0,0,3,.66,2.59,4.55,0,0-1.26,2.09-1.85,1.66,0,0-1-5.07-.21-6.73,0,0,.33-1.06-.31-1.47,0,0,3.22-4.6,4.22-1.76,0,0,1.37,10.22-3.91,3.54C41,20,39,20.77,40.19,18.18Z"/><path class="cls-2" d="M27.8,34.19s1.92,7.47,3.92,1.9,3.78.57,3.78.57,1.37,5,2.51.14,2.57-6.24,3.57-3S43.44,38,44,36.09s1.71-6,3.14-1.86,2.43,4.86,2.57,3,1.72-6.29,3.08-3.57"/><path class="cls-2" d="M22.58,45.74s2.73,7.47,5.57,1.9,5.34.57,5.34.57,1.95,5,3.57.14,3.64-6.24,5.06-3.05,2.63,4.2,3.44,2.34,2.43-6,4.45-1.86,3.45,4.85,3.65,3,2.43-6.29,4.35-3.57"/><path class="cls-2" d="M64.3,58.25s-3.71,7.46-7.55,1.89-7.24.57-7.24.57-2.63,5-4.83.14-4.93-6.24-6.85-3.05-3.57,4.2-4.67,2.34-3.29-6-6-1.86-4.66,4.86-4.94,3S18.9,55,16.3,57.71"/><path class="cls-3" d="M20.25,52.16a1,1,0,0,1,.23-1.31c.38-.17.89.12,1.14.66s-.22,1.3-.22,1.3S20.51,52.7,20.25,52.16Z"/><path class="cls-3" d="M19,52c-.3-.65-.18-1.35.27-1.56s1.07.13,1.38.78-.27,1.56-.27,1.56S19.28,52.59,19,52Z"/><path class="cls-3" d="M25.72,39.94c-.26-.54-.16-1.12.22-1.3s.89.12,1.15.66-.23,1.3-.23,1.3S26,40.49,25.72,39.94Z"/><path class="cls-3" d="M24.44,39.74a1.16,1.16,0,0,1,.27-1.57c.45-.21,1.07.14,1.37.79s-.27,1.56-.27,1.56S24.74,40.38,24.44,39.74Z"/><path class="cls-3" d="M32.14,27.94a1,1,0,0,1,.23-1.3c.38-.18.89.12,1.15.66s-.23,1.3-.23,1.3S32.4,28.49,32.14,27.94Z"/><path class="cls-3" d="M30.87,27.74a1.16,1.16,0,0,1,.27-1.57c.45-.21,1.07.14,1.37.79s-.27,1.56-.27,1.56S31.17,28.38,30.87,27.74Z"/><path class="cls-3" d="M48.49,27.91c.25-.55.15-1.13-.23-1.31s-.89.12-1.15.66.23,1.3.23,1.3S48.23,28.45,48.49,27.91Z"/><path class="cls-3" d="M49.77,27.7a1.18,1.18,0,0,0-.27-1.57c-.46-.21-1.07.14-1.38.79s.27,1.56.27,1.56S49.46,28.34,49.77,27.7Z"/><path class="cls-3" d="M55,39.91c.25-.55.15-1.13-.23-1.31s-.89.12-1.15.66.23,1.3.23,1.3S54.72,40.45,55,39.91Z"/><path class="cls-3" d="M56.26,39.7A1.18,1.18,0,0,0,56,38.13c-.46-.21-1.07.14-1.38.79s.27,1.56.27,1.56S56,40.34,56.26,39.7Z"/><path class="cls-3" d="M60.53,52.12a1,1,0,0,0-.22-1.31c-.38-.17-.9.12-1.15.66s.23,1.3.23,1.3S60.28,52.66,60.53,52.12Z"/><path class="cls-3" d="M61.81,51.91c.31-.65.19-1.35-.27-1.56s-1.07.13-1.37.78.27,1.56.27,1.56S61.51,52.55,61.81,51.91Z"/></g></g></svg>