<?xml version="1.0" encoding="utf-8"?>
<!-- Generator: Adobe Illustrator 23.0.1, SVG Export Plug-In . SVG Version: 6.00 Build 0)  -->
<svg version="1.1" id="Layer_1" xmlns="http://www.w3.org/2000/svg" xmlns:xlink="http://www.w3.org/1999/xlink" x="0px" y="0px"
	 viewBox="0 0 149 146.9" style="enable-background:new 0 0 149 146.9;" xml:space="preserve">
<style type="text/css">
	.st0{fill:#E00000;stroke:#E00000;stroke-width:3;stroke-miterlimit:10;}
	.st1{fill:#2B8700;stroke:#2B8700;stroke-width:3;stroke-miterlimit:10;}
	.st2{fill:#2B8700;}
	.st3{fill:#9FEBFF;stroke:#000000;stroke-width:2;stroke-miterlimit:10;}
	.st4{fill:none;stroke:#E00000;stroke-width:5;stroke-miterlimit:10;}
</style>
<g>
	<path class="st0" d="M127.4,26.6c0,33.3,0,66.7,0,100c-33.3,0-66.6,0-100,0c0-33.3,0-66.6,0-100C60.7,26.6,94,26.6,127.4,26.6z
		 M30.3,123.7c31.4,0,62.7,0,94.1,0c0-0.3,0-0.5,0-0.7c0-30.9,0-61.8,0-92.7c0-0.8,0-0.8-0.8-0.8c-30.9,0-61.8,0-92.6,0
		c-0.2,0-0.5,0-0.7,0C30.3,60.9,30.3,92.3,30.3,123.7z"/>
</g>
<g>
	<path class="st1" d="M-109.1,22.9c0,33.3,0,66.7,0,100c-33.3,0-66.6,0-100,0c0-33.3,0-66.6,0-100
		C-175.8,22.9-142.5,22.9-109.1,22.9z M-206.2,120c31.4,0,62.7,0,94.1,0c0-0.3,0-0.5,0-0.7c0-30.9,0-61.8,0-92.7
		c0-0.8,0-0.8-0.8-0.8c-30.9,0-61.8,0-92.6,0c-0.2,0-0.5,0-0.7,0C-206.2,57.2-206.2,88.6-206.2,120z"/>
	<path class="st2" d="M-129.7,73.9c0,16.1-13.3,29.2-29.7,29.1c-16.1-0.2-29.2-13.2-29.1-29.2c0-16.2,13.4-29.1,29.7-29
		C-142.8,44.8-129.7,57.9-129.7,73.9z"/>
</g>
<g>
	<path class="st3" d="M83.2,64.9c0.2-0.3,0.4-0.5,0.6-0.7c0.7-0.5,1.6-0.5,2.3-0.1l3.5,2V48.9c0-0.8-0.6-1.4-1.4-1.4H64
		c-0.8,0-1.4,0.6-1.4,1.4v24.2c0,0.8,0.6,1.4,1.4,1.4h13.6L83.2,64.9z"/>
	<path class="st3" d="M107.8,81.8l-22-13l-4.3,7.3c0,0.1,0,0.3,0,0.4v21l12.6,7.4c0.7,0.4,1.5,0.2,1.9-0.5l12.3-20.8
		C108.7,83.1,108.5,82.2,107.8,81.8z"/>
	<path class="st3" d="M75.9,78.7H51.7c-0.8,0-1.4,0.6-1.4,1.4v24.2c0,0.8,0.6,1.4,1.4,1.4h24.2c0.8,0,1.4-0.6,1.4-1.4V80.2
		C77.3,79.4,76.7,78.7,75.9,78.7z"/>
</g>
<line class="st4" x1="30.3" y1="29.5" x2="124.4" y2="123"/>
</svg>
