<?xml version="1.0" encoding="utf-8"?>
<!-- Generator: Adobe Illustrator 23.0.1, SVG Export Plug-In . SVG Version: 6.00 Build 0)  -->
<svg version="1.1" id="Layer_1" xmlns="http://www.w3.org/2000/svg" xmlns:xlink="http://www.w3.org/1999/xlink" x="0px" y="0px"
	 viewBox="0 0 149 146.9" style="enable-background:new 0 0 149 146.9;" xml:space="preserve">
<style type="text/css">
	.st0{fill:#C4C4C4;stroke:#C4C4C4;stroke-width:3;stroke-miterlimit:10;}
	.st1{fill:#C4C4C4;}
	.st2{fill:#2B8700;stroke:#2B8700;stroke-width:3;stroke-miterlimit:10;}
	.st3{fill:#2B8700;}
	.st4{fill:#BABABA;stroke:#727272;stroke-width:2;stroke-miterlimit:10;}
	.st5{fill:none;stroke:#C4C4C4;stroke-width:5;stroke-miterlimit:10;}
	.st6{fill:#E00000;stroke:#E00000;stroke-width:3;stroke-miterlimit:10;}
	.st7{fill:#9FEBFF;stroke:#000000;stroke-width:2;stroke-miterlimit:10;}
	.st8{fill:none;stroke:#E00000;stroke-width:5;stroke-miterlimit:10;}
</style>
<g>
	<path class="st0" d="M359.4,26.6c0,33.3,0,66.7,0,100c-33.3,0-66.6,0-100,0c0-33.3,0-66.6,0-100C292.7,26.6,326,26.6,359.4,26.6z
		 M262.3,123.7c31.4,0,62.7,0,94.1,0c0-0.3,0-0.5,0-0.7c0-30.9,0-61.8,0-92.7c0-0.8,0-0.8-0.8-0.8c-30.9,0-61.8,0-92.6,0
		c-0.2,0-0.5,0-0.7,0C262.3,60.9,262.3,92.3,262.3,123.7z"/>
</g>
<g>
	<path class="st0" d="M122.9,22.9c0,33.3,0,66.7,0,100c-33.3,0-66.6,0-100,0c0-33.3,0-66.6,0-100C56.2,22.9,89.5,22.9,122.9,22.9z
		 M25.8,120c31.4,0,62.7,0,94.1,0c0-0.3,0-0.5,0-0.7c0-30.9,0-61.8,0-92.7c0-0.8,0-0.8-0.8-0.8c-30.9,0-61.8,0-92.6,0
		c-0.2,0-0.5,0-0.7,0C25.8,57.2,25.8,88.6,25.8,120z"/>
	<path class="st1" d="M102.3,73.9c0,16.1-13.3,29.2-29.7,29.1c-16.1-0.2-29.2-13.2-29.1-29.2c0-16.2,13.4-29.1,29.7-29
		C89.2,44.8,102.3,57.9,102.3,73.9z"/>
</g>
<g>
	<path class="st2" d="M122.9-152.1c0,33.3,0,66.7,0,100c-33.3,0-66.6,0-100,0c0-33.3,0-66.6,0-100
		C56.2-152.1,89.5-152.1,122.9-152.1z M25.8-55c31.4,0,62.7,0,94.1,0c0-0.3,0-0.5,0-0.7c0-30.9,0-61.8,0-92.7c0-0.8,0-0.8-0.8-0.8
		c-30.9,0-61.8,0-92.6,0c-0.2,0-0.5,0-0.7,0C25.8-117.8,25.8-86.4,25.8-55z"/>
	<path class="st3" d="M102.3-101.1C102.3-85,89-71.9,72.6-72c-16.1-0.2-29.2-13.2-29.1-29.2c0-16.2,13.4-29.1,29.7-29
		C89.2-130.2,102.3-117.1,102.3-101.1z"/>
</g>
<g>
	<path class="st4" d="M315.2,64.9c0.2-0.3,0.4-0.5,0.6-0.7c0.7-0.5,1.6-0.5,2.3-0.1l3.5,2V48.9c0-0.8-0.6-1.4-1.4-1.4H296
		c-0.8,0-1.4,0.6-1.4,1.4v24.2c0,0.8,0.6,1.4,1.4,1.4h13.6L315.2,64.9z"/>
	<path class="st4" d="M339.8,81.8l-22-13l-4.3,7.3c0,0.1,0,0.3,0,0.4v21l12.6,7.4c0.7,0.4,1.5,0.2,1.9-0.5l12.3-20.8
		C340.7,83.1,340.5,82.2,339.8,81.8z"/>
	<path class="st4" d="M307.9,78.7h-24.2c-0.8,0-1.4,0.6-1.4,1.4v24.2c0,0.8,0.6,1.4,1.4,1.4h24.2c0.8,0,1.4-0.6,1.4-1.4V80.2
		C309.3,79.4,308.7,78.7,307.9,78.7z"/>
</g>
<line class="st5" x1="262.3" y1="29.5" x2="356.4" y2="123"/>
<g>
	<path class="st6" d="M359.4-148.4c0,33.3,0,66.7,0,100c-33.3,0-66.6,0-100,0c0-33.3,0-66.6,0-100
		C292.7-148.4,326-148.4,359.4-148.4z M262.3-51.3c31.4,0,62.7,0,94.1,0c0-0.3,0-0.5,0-0.7c0-30.9,0-61.8,0-92.7
		c0-0.8,0-0.8-0.8-0.8c-30.9,0-61.8,0-92.6,0c-0.2,0-0.5,0-0.7,0C262.3-114.1,262.3-82.7,262.3-51.3z"/>
</g>
<g>
	<path class="st7" d="M315.2-110.1c0.2-0.3,0.4-0.5,0.6-0.7c0.7-0.5,1.6-0.5,2.3-0.1l3.5,2v-17.3c0-0.8-0.6-1.4-1.4-1.4H296
		c-0.8,0-1.4,0.6-1.4,1.4v24.2c0,0.8,0.6,1.4,1.4,1.4h13.6L315.2-110.1z"/>
	<path class="st7" d="M339.8-93.2l-22-13l-4.3,7.3c0,0.1,0,0.3,0,0.4v21l12.6,7.4c0.7,0.4,1.5,0.2,1.9-0.5l12.3-20.8
		C340.7-91.9,340.5-92.8,339.8-93.2z"/>
	<path class="st7" d="M307.9-96.3h-24.2c-0.8,0-1.4,0.6-1.4,1.4v24.2c0,0.8,0.6,1.4,1.4,1.4h24.2c0.8,0,1.4-0.6,1.4-1.4v-24.2
		C309.3-95.6,308.7-96.3,307.9-96.3z"/>
</g>
<line class="st8" x1="262.3" y1="-145.5" x2="356.4" y2="-52"/>
</svg>
