<svg xmlns="http://www.w3.org/2000/svg" viewBox="0 0 80.59 80.59"><defs><style>.cls-1{fill:#f3f3f3;}.cls-2{fill:#E3323A;}.cls-3{fill:none;stroke:#E3323A;stroke-miterlimit:10;stroke-width:0.6px;fill-rule:evenodd;}</style></defs><title>Asset 4</title><g id="Layer_2" data-name="Layer 2"><g id="Layer_1-2" data-name="Layer 1"><circle class="cls-1" cx="40.3" cy="40.3" r="40.3"/><path class="cls-2" d="M23.62,34a1,1,0,0,0,.74.54,1.58,1.58,0,0,0,.9-.19l.07,0,0,.08a1.12,1.12,0,0,0,.78.69,1.5,1.5,0,0,0,1-.28l.15-.1.07.19a2.06,2.06,0,0,0,.75,1,.91.91,0,0,0,1.06-.28l.25-.23.11.34a1.38,1.38,0,0,0,.3.51,1,1,0,0,0,.49.25,1.34,1.34,0,0,0,.59,0,3,3,0,0,0,.59-.26l.26-.14.12.29a1,1,0,0,0,.3.39.69.69,0,0,0,.42.16,1.78,1.78,0,0,0,1-.39l.26-.18.19.28a1.32,1.32,0,0,0,1,.66.86.86,0,0,0,.5-.2,2.4,2.4,0,0,0,.46-.49l.34-.44.24.5c.19.38.53.77.84.79a.72.72,0,0,0,.48-.14,2.54,2.54,0,0,0,.47-.46l.38-.45.23.55a2.27,2.27,0,0,0,.39.61.58.58,0,0,0,.47.23c.33,0,.72-.48,1-.92l.34-.51.3.54a1.77,1.77,0,0,0,.43.51.68.68,0,0,0,.5.19c.33,0,.7-.43,1-.85l.35-.58.27.63c.17.39.52.81.83.8s.71-.33,1-.72l.2-.28.28.23a1.5,1.5,0,0,0,1,.38.77.77,0,0,0,.44-.24,1.83,1.83,0,0,0,.33-.49l.22-.42.29.36a1.11,1.11,0,0,0,1,.48,1.15,1.15,0,0,0,.48-.34,3.34,3.34,0,0,0,.36-.58l.15-.27.23.19A1.32,1.32,0,0,0,52,36.2a1.07,1.07,0,0,0,.46-.34,2.65,2.65,0,0,0,.3-.58l.1-.24.2.15a1,1,0,0,0,1.17.17,2.08,2.08,0,0,0,.72-1.15L55,34l.12.19c.18.31.48.69.85.64s.6-.49.77-.84a3.15,3.15,0,0,1-.26.56.84.84,0,0,1-.49.39.74.74,0,0,1-.62-.18,1.89,1.89,0,0,1-.42-.47l.18,0a4.37,4.37,0,0,1-.25.72,1.74,1.74,0,0,1-.5.62,1.16,1.16,0,0,1-.81.19,1.79,1.79,0,0,1-.76-.3l.3-.09a2.83,2.83,0,0,1-.34.7,1.39,1.39,0,0,1-.65.51,1.34,1.34,0,0,1-.84,0,2.3,2.3,0,0,1-.71-.37l.38-.08a3.61,3.61,0,0,1-.42.7,1.57,1.57,0,0,1-.72.53,1.28,1.28,0,0,1-.93-.09,2.31,2.31,0,0,1-.7-.54l.51-.06a2.24,2.24,0,0,1-.44.69,1.36,1.36,0,0,1-.78.42,1.79,1.79,0,0,1-.87-.1,2.71,2.71,0,0,1-.71-.42l.48,0a3.65,3.65,0,0,1-.6.65,1.47,1.47,0,0,1-.95.36,1.38,1.38,0,0,1-.93-.45,2.35,2.35,0,0,1-.51-.77l.62,0a4.18,4.18,0,0,1-.56.73,1.69,1.69,0,0,1-.93.48,1.46,1.46,0,0,1-1-.33,2.61,2.61,0,0,1-.63-.74l.64,0a4.53,4.53,0,0,1-.6.74,1.66,1.66,0,0,1-1,.51A1.33,1.33,0,0,1,38.85,38a2.83,2.83,0,0,1-.52-.86l.61.1a3.69,3.69,0,0,1-.64.6,1.44,1.44,0,0,1-1,.24,1.55,1.55,0,0,1-.86-.47,2.86,2.86,0,0,1-.5-.73l.59.06a3.25,3.25,0,0,1-.61.62,1.44,1.44,0,0,1-1.81,0,2.7,2.7,0,0,1-.6-.66L34,37a2.3,2.3,0,0,1-1.4.46,1.33,1.33,0,0,1-.75-.32,1.57,1.57,0,0,1-.44-.65l.39.15a3.16,3.16,0,0,1-.72.28,1.87,1.87,0,0,1-.82,0,1.42,1.42,0,0,1-.72-.42,1.64,1.64,0,0,1-.39-.72l.35.11a1.66,1.66,0,0,1-.7.39,1.07,1.07,0,0,1-.84-.11A2.28,2.28,0,0,1,27.11,35l.22.09a2.27,2.27,0,0,1-.58.23,1.43,1.43,0,0,1-.65,0,1.31,1.31,0,0,1-.88-.86l.11,0a1.62,1.62,0,0,1-1,.13A1,1,0,0,1,23.62,34Z"/><path class="cls-2" d="M16.63,49.14a1.45,1.45,0,0,0,1.11.54,3.11,3.11,0,0,0,1.24-.2l.06,0,0,.06a1.55,1.55,0,0,0,1.21.7,3,3,0,0,0,1.44-.3l.13-.05.07.13a2.11,2.11,0,0,0,1.2,1.06,1.47,1.47,0,0,0,.78,0,3.08,3.08,0,0,0,.75-.32l.21-.13.11.24a1.37,1.37,0,0,0,.52.55,1.72,1.72,0,0,0,.77.22A4,4,0,0,0,28,51.29l.21-.08.14.22a1.2,1.2,0,0,0,.49.42,1.62,1.62,0,0,0,.7.14,3.64,3.64,0,0,0,1.47-.4l.21-.1.17.18a2.58,2.58,0,0,0,.7.49,1.64,1.64,0,0,0,.81.19,1.76,1.76,0,0,0,.8-.2,3.2,3.2,0,0,0,.72-.52l.29-.25.22.32a2.47,2.47,0,0,0,.6.56,1.65,1.65,0,0,0,.75.26,1.79,1.79,0,0,0,.78-.16,3.41,3.41,0,0,0,.73-.48l.32-.27.23.37a2.13,2.13,0,0,0,.62.65,1.32,1.32,0,0,0,.79.22,2,2,0,0,0,.82-.31,5,5,0,0,0,.75-.64l.29-.3.27.32a2.21,2.21,0,0,0,.69.55,1.47,1.47,0,0,0,.81.19,1.79,1.79,0,0,0,.81-.28,3.33,3.33,0,0,0,.71-.6l.31-.33.25.38a2.07,2.07,0,0,0,.59.59,1.39,1.39,0,0,0,.76.24,2,2,0,0,0,.81-.22,4.58,4.58,0,0,0,.74-.53l.18-.16.21.12a3,3,0,0,0,1.57.41,1.63,1.63,0,0,0,.73-.21,2,2,0,0,0,.56-.54l.2-.26.24.19a2.16,2.16,0,0,0,1.54.52,1.51,1.51,0,0,0,.74-.31,2.72,2.72,0,0,0,.6-.62l.14-.18.18.1a2.76,2.76,0,0,0,1.6.36,1.39,1.39,0,0,0,.73-.3,2.14,2.14,0,0,0,.52-.63l.09-.17.16.09a2.24,2.24,0,0,0,1.64.22,1.49,1.49,0,0,0,.7-.44,2.56,2.56,0,0,0,.46-.74l0-.1.1.06a2.49,2.49,0,0,0,1.6.37,1.89,1.89,0,0,0,1.35-.94,2.49,2.49,0,0,1-.54.67,1.67,1.67,0,0,1-.79.38,2.69,2.69,0,0,1-1.73-.32l.14,0a3.08,3.08,0,0,1-.46.83,1.83,1.83,0,0,1-.79.55,2,2,0,0,1-1,.1,2.89,2.89,0,0,1-.94-.27l.26-.08a2.4,2.4,0,0,1-.6.78,1.85,1.85,0,0,1-.92.42,2.69,2.69,0,0,1-1,0,3.5,3.5,0,0,1-.92-.33l.32-.07a3.09,3.09,0,0,1-.69.76,2,2,0,0,1-1,.43,2.23,2.23,0,0,1-1.06-.1,3,3,0,0,1-.94-.49l.45-.07a2.41,2.41,0,0,1-.74.75,2.15,2.15,0,0,1-1,.32,3.08,3.08,0,0,1-1-.11,3.78,3.78,0,0,1-.94-.38l.4,0a4.31,4.31,0,0,1-.88.64,2.5,2.5,0,0,1-1.12.31A2.14,2.14,0,0,1,45.63,53a2.87,2.87,0,0,1-.82-.81l.56.05a3.86,3.86,0,0,1-.86.74,2.36,2.36,0,0,1-1.14.39,2.23,2.23,0,0,1-1.19-.25,3.14,3.14,0,0,1-.93-.74l.56,0a5.46,5.46,0,0,1-.88.77,2.77,2.77,0,0,1-1.18.41,2,2,0,0,1-1.25-.35,2.72,2.72,0,0,1-.84-.91l.55.1a4.27,4.27,0,0,1-.91.58,2.32,2.32,0,0,1-1.11.21,2.15,2.15,0,0,1-1.08-.37,2.79,2.79,0,0,1-.79-.78l.51.07a3.82,3.82,0,0,1-.89.62,2.25,2.25,0,0,1-1.09.26,2.54,2.54,0,0,1-1.1-.26,3.12,3.12,0,0,1-.89-.66l.38.07a3.88,3.88,0,0,1-1.76.43,2.06,2.06,0,0,1-.94-.22,1.75,1.75,0,0,1-.74-.69l.35.13a4.43,4.43,0,0,1-1.92.3A1.91,1.91,0,0,1,24.57,51l.32.11a3.46,3.46,0,0,1-.89.36,1.89,1.89,0,0,1-1.81-.56,2.86,2.86,0,0,1-.54-.78l.2.08a3.29,3.29,0,0,1-1.58.24,1.75,1.75,0,0,1-1.33-.86l.09,0a3.18,3.18,0,0,1-1.3.13A1.48,1.48,0,0,1,16.63,49.14Z"/><path class="cls-3" d="M64.72,62.21V48.87c.37-.17.58-.35.58-.54,0-.74-3.14-1.41-8.13-1.87V34.12c.26-.17.4-.35.4-.54,0-.88-3.06-1.66-7.7-2.11a.14.14,0,0,1,0-.06.84.84,0,0,1,0-.25,9.82,9.82,0,0,0,.17-2c-.08-.69-.11-1.14-.16-1.4a12.51,12.51,0,0,1-.16-1.58c0-.44.07-.7.07-1a2.09,2.09,0,0,1,0-.4s.48-.09.65-.15a1.2,1.2,0,0,0,.35-.2s-.45-.89-.55-1.2-.32-.53-.41-.76a2.5,2.5,0,0,1-.09-.68c0-.18.11-1.11.11-1.35a7.16,7.16,0,0,0,0-1.47,2.69,2.69,0,0,0-.33-.62c-.06-.1-.38-.44-.41-.49s-.05-.06,0-.09,0-.06,0-.16-.07-.16-.11-.17a.19.19,0,0,0-.09,0s0-.1-.05-.14a6.12,6.12,0,0,0,.13-.78A1,1,0,0,0,48.7,16c-.08-.08-.14-.09-.14-.12a.49.49,0,0,0-.21-.18,1.44,1.44,0,0,0-.72-.05,4.49,4.49,0,0,0-.62.2.6.6,0,0,1-.18,0,.8.8,0,0,0,0,.15.85.85,0,0,0,.05.13l-.13.41c0,.06.07.21.05.26a1.23,1.23,0,0,1-.19.27c-.07.07-.07.11,0,.14s.2.06.2.08a.56.56,0,0,1,0,.13s0,.06,0,.07l.09.05a0,0,0,0,0,0,0s0,0,0,0a.13.13,0,0,1,0,.1c0,.07,0,.09,0,.12s.06,0,.24,0,.23,0,.29.06a.54.54,0,0,1,.05.23,1.2,1.2,0,0,1-.13.15s-.06,0,0,.06a.22.22,0,0,1,0,.14s0,.12-.1.21a.67.67,0,0,1-.13.19s-.19.48-.3.73a9.19,9.19,0,0,0-.23,1.14,4.89,4.89,0,0,1-.14.64c0,.07-.06.1-.13.07a.74.74,0,0,0-.37.08c-.15,0-.36.15-.36.15H45.5s0-.14,0-.17,0,0,.12,0a.62.62,0,0,0,.17-.07s-.12-.05-.06,0,.11,0,.14-.06a.06.06,0,0,0,0-.07l0-.05s0,0,.08-.06a.21.21,0,0,0,.07-.13c0-.06,0-.11,0-.13a.12.12,0,0,1,0-.12.09.09,0,0,0,0-.12s-.1,0-.09-.06,0-.1,0-.1,0,0,0,.05l0,0,0,0a0,0,0,0,0,0-.06s-.12-.08-.11-.1,0-.05,0-.09,0-.09,0-.12-.06-.05-.07,0a.26.26,0,0,1,0,.11.49.49,0,0,1-.08.1.16.16,0,0,0,0-.05c0-.06,0-.1,0-.08s-.06.05-.06.06,0,.06,0,.07-.11,0-.16,0-.09,0-.09-.05,0,0,0-.07a.38.38,0,0,0,0-.1c0-.07,0-.07,0-.07s0,0,0,0,0,0,0,.08,0,.1,0,.1-.07,0-.09-.08,0,0-.06,0a.06.06,0,0,0,0,.06.13.13,0,0,1,0,.06.14.14,0,0,0-.08,0,.13.13,0,0,0-.07.05l0,.06s0,0,0,0l0,0a.11.11,0,0,1-.13.06c-.1,0-.12-.05-.12,0s0,0,0,.07,0,.05,0,.05-.07,0-.11,0-.07,0-.07.08a.13.13,0,0,1,0,.08s0,0-.06.05,0,0,0,0-.06,0-.1,0-.06,0-.06.07.26.13.27.2,0,.11,0,.16,0,0,.07.06.07,0,.11.05.17.06.13.07-.46-.09-.58-.13-.87-.46-1.09-.53-.25-.07-.36-.18S42,20,42,20s0-.27-.17-.45l-.41-.45c-.12-.13-.1-.09-.16-.22s-.17-.38-.33-.43-.3,0-.35-.06a.25.25,0,0,1,0-.09,1.93,1.93,0,0,1,.09-.41c.05-.08.07-.12.08-.12l.36.09a.16.16,0,0,0,.18-.16.26.26,0,0,1,0-.16s.06,0,.06-.06,0,0,0-.05.06,0,.06,0,0,0,0-.05.06,0,.14,0,.11-.05.1-.08a2.3,2.3,0,0,1-.17-.35.37.37,0,0,1,0-.14.16.16,0,0,0,.09-.14c0-.12,0-.38,0-.46a.51.51,0,0,0,0-.28,1.25,1.25,0,0,0-.76-.48c-.44-.08-.61-.11-.87.07s-.28.49-.34.53a.35.35,0,0,1-.16,0,1,1,0,0,0-.4.13,7.46,7.46,0,0,0-1,2.53,9.69,9.69,0,0,1-.86,2.44c-.14.3-.19.3-.1.42s.32.18.28.31-.29,1.39-.36,1.76-.08.42,0,.41l.26-.05c.08,0,.11-.08.19,0s0,.2.22.2.32.06.3.12a14.89,14.89,0,0,0-1.65,2.2C35.59,27.61,36,28.11,34.8,29a12.92,12.92,0,0,1-2.26,1.25c-.61.32-1.28.37-1.61.63a3.3,3.3,0,0,1-1.47.32c-.55.08-1.85.46-2,.49s-.33.18-.48.21-.2,0-.18.07l.3,0c-2.54.44-4.07,1-4.07,1.64,0,.19.14.37.4.54V46.46c-5,.46-8.12,1.13-8.12,1.87,0,.19.2.37.57.54V62.21c-.37.18-.57.36-.57.55,0,1.4,11.19,2.54,25,2.54s25-1.14,25-2.54C65.3,62.57,65.09,62.39,64.72,62.21Zm-22-40.39a15.64,15.64,0,0,0,1.67.24s0,0,0,.05a.2.2,0,0,1,0,.08.14.14,0,0,0,0,.16c.07,0,.17,0,.2,0s0,0,0,.06a.15.15,0,0,0,.06.11c.05,0,0,0,.07,0s0,.05.05.11.09,0,.09,0,0,.41,0,.43a0,0,0,0,0,0,0h.1s0,0,.06,0,0,0,0,0l.05,0h.06s0,0,0,0,0,0,0,0,0,0,0-.07,0-.39,0-.4.17-.07.17-.07.16.14.17.25.18.1.28.11a3.65,3.65,0,0,0,.77-.33s-.21,2.11-.25,2.19,0,.17.16.2A.94.94,0,0,0,47,25a1.68,1.68,0,0,1,0,.25c0,.2.15.83.15,1s0,.13,0,.43.12,1.51.1,1.69,0,.2.1.54a2.5,2.5,0,0,1-.07.81c-.05.49,0,1,0,1.08a1.56,1.56,0,0,1-.13.19s-.07.13-.09.17,0,0,0,.07l-1.35-.07a8.78,8.78,0,0,1-.3-.88,8.83,8.83,0,0,0-1.11-3.06,30.31,30.31,0,0,1-2.12-4.75,6.74,6.74,0,0,1-.27-.85A7.51,7.51,0,0,1,42.75,21.82Zm-3.6-4.63v-.34l.06.08a.51.51,0,0,0,.23.16c.08,0,.13.15.15.2a.79.79,0,0,1-.05.45,4.63,4.63,0,0,1-.44.7C39.06,18.51,39.16,17.39,39.15,17.19ZM39,22a.86.86,0,0,0,0-.25l.18-.06a1.19,1.19,0,0,0,0-.22,7.64,7.64,0,0,1-.05-1.06V20s.05.15.1.27a.37.37,0,0,0,.14.16.26.26,0,0,1,0,.07.15.15,0,0,0,.06.14,1.09,1.09,0,0,1,.18.43.55.55,0,0,0,.15.27s0,0-.1.11,0,.16,0,.28-.09.27,0,.36.24.14.24.14a1.27,1.27,0,0,1-.27.39c-.23.23-.63.72-.63.72S39,22.1,39,22Z"/></g></g></svg>