<svg id="Layer_1" data-name="Layer 1" xmlns="http://www.w3.org/2000/svg" viewBox="0 0 84 84"><defs><style>.cls-1{fill:#f3f3f3;}.cls-2{fill:none;stroke:#e47277;stroke-miterlimit:10;stroke-width:0.75px;}</style></defs><title>anniversary-06</title><circle class="cls-1" cx="42" cy="42" r="40.3"/><path class="cls-2" d="M69.22,42.59,67.54,70.44H16.59L14.69,41.2a3.39,3.39,0,0,1,.26.54c1,2.87,0,6.34,2.21,6s2.37-2,2.07-3.38a15.68,15.68,0,0,0-.74-2,1.46,1.46,0,0,1,.4-1.46c.44-.39,1.29-.59,2.8-.31a2.45,2.45,0,0,1,.84.31c1.94,1.18.91,4.74.9,4.81h0s-3,5.55.95,6.7c3.5,1,2.51-4.24,2.36-6a1.84,1.84,0,0,1,0-.48c.19-.7,2.5-4.47,3.65-2.87S30.05,47,33,47.3h0l.22,0h0c3.27.24,2.89-3.8,3.6-5.22.28-.56,2-1.71,1.6,1.91-.15,1.38-.35,2.63-.37,3.63,0,1.64.43,2.63,2.42,2.52,1.25-.08,2.08-1.16,2.62-2.45a17.42,17.42,0,0,0,1-4.53c.14-.62,1-2.43,2,1.54s1.59-2.38,1.92-3.26a1.72,1.72,0,0,1,.39-.59c.23-.22.51-.33.75,0a4.55,4.55,0,0,1,.46,2.19c.07,1.38,0,2.94.12,4.34.1,2.34.43,4.21,1.8,4,1.75-.31,3.42-1.16,3.47-4.59a17.39,17.39,0,0,0-.27-3,6.3,6.3,0,0,1,0-2.95c.53-1.56,2.2-.75,2.9,0a1.42,1.42,0,0,1,.3.46c.39,1.23-.91,3.14-.88,5.1,0,.94.24,1.61.88,1.55,1-.09,1.71-1.16,2.2-2.21s.42-1.67.75-2.14.47-.32.8,1.73c0,.21.06.44.09.7.18,1.55.82.29,1.36-1.15.44-1.18.82-2.49.82-2.49s.69-1.42,1.14,1.75-1.09,7.38,1.51,7C68.62,50.9,68.35,46.91,69.22,42.59Z"/><path class="cls-2" d="M70,39.64a6,6,0,0,1-.42,1.4c-.14.52-.26,1-.37,1.55-.87,4.32-.6,8.31-2.53,8.59-2.6.38-1-3.83-1.51-7S64,42.43,64,42.43s-.38,1.31-.82,2.49c-.54,1.44-1.18,2.7-1.36,1.15,0-.26-.06-.49-.09-.7-.33-2-.53-2.12-.8-1.73s-.25,1.07-.75,2.14S59,47.9,58,48c-.64.06-.86-.61-.88-1.55,0-2,1.27-3.87.88-5.1a1.42,1.42,0,0,0-.3-.46c-.7-.75-2.37-1.56-2.9,0a6.3,6.3,0,0,0,0,2.95,17.39,17.39,0,0,1,.27,3c-.05,3.43-1.72,4.28-3.47,4.59-1.37.24-1.7-1.63-1.8-4-.07-1.4,0-3-.12-4.34a4.55,4.55,0,0,0-.46-2.19c-.24-.33-.52-.22-.75,0a1.72,1.72,0,0,0-.39.59c-.33.88-.83,7.22-1.92,3.26s-1.91-2.16-2-1.54a17.42,17.42,0,0,1-1,4.53c-.54,1.29-1.37,2.37-2.62,2.45-2,.11-2.45-.88-2.42-2.52,0-1,.22-2.25.37-3.63.39-3.62-1.32-2.47-1.6-1.91-.71,1.42-.33,5.46-3.6,5.22h0l-.22,0h0c-3-.34-1.51-2.67-2.63-4.23s-3.46,2.17-3.65,2.87a1.84,1.84,0,0,0,0,.48c.15,1.74,1.14,7-2.36,6-4-1.15-.95-6.7-.95-6.7h0c0-.07,1-3.63-.9-4.81a2.45,2.45,0,0,0-.84-.31c-1.51-.28-2.36-.08-2.8.31a1.46,1.46,0,0,0-.4,1.46,15.68,15.68,0,0,1,.74,2c.3,1.38.14,3-2.07,3.38s-1.2-3.12-2.21-6a3.39,3.39,0,0,0-.26-.54,3.54,3.54,0,0,1-.7-1.56,3.66,3.66,0,0,1,1.61-2.72h0c3.86-3.13,14.22-5.38,26.4-5.38,13.58,0,24.9,2.8,27.46,6.5A2.79,2.79,0,0,1,70,39.64Z"/><path class="cls-2" d="M40.5,63l-.22,0"/><path class="cls-2" d="M15.93,60.26S31,64.32,51.5,57s16.8.87,16.8.87"/><path class="cls-2" d="M16.18,64s15.1,4.07,35.57-3.27,16.33.85,16.33.85"/><circle class="cls-2" cx="25.74" cy="57.66" r="0.81"/><circle class="cls-2" cx="33.93" cy="52.53" r="1.41"/><circle class="cls-2" cx="51.24" cy="66.6" r="1.41"/><circle class="cls-2" cx="46.47" cy="53.94" r="0.65"/><circle class="cls-2" cx="58.58" cy="49.76" r="0.65"/><circle class="cls-2" cx="29.32" cy="67.25" r="0.65"/><circle class="cls-2" cx="57.93" cy="61.38" r="0.65"/><path class="cls-2" d="M36.41,20.6a4.85,4.85,0,0,0-1.89.33c-.3,0-.41-.31-.41-.76A3.82,3.82,0,0,1,35,17.65a4,4,0,0,1,1.28-.18,22.83,22.83,0,0,1,3.15.3c.36,0,.57-2.33.57-2.58s-.21-.24-.39-.24H36a2.73,2.73,0,0,0,1-2.3A3.24,3.24,0,0,0,35.86,10a12.45,12.45,0,0,0-1.11,2.64,2.48,2.48,0,0,0,1,2.3H32.94c-.82,0-1.37,4.55-1.37,7.52,0,1.16.65,1.42,1.16,1.42s1.22-1,2.62-1a2.4,2.4,0,0,1,2.42,2.56,2.15,2.15,0,0,1-2.33,2.23c-2.06,0-2.26-1.44-2.83-1.44-.34,0-1.54,2.89-1.54,3.05,0,.43,1.4,1.89,4,1.89,3.23,0,5.55-2.05,5.55-5.69C40.64,23,39.18,20.6,36.41,20.6Z"/><path class="cls-2" d="M48.08,14.65c-2.64,0-5.06,2.64-5.06,8.29s2.42,8.27,5.06,8.27,5.06-2.62,5.06-8.27S50.72,14.65,48.08,14.65Zm0,13.06c-1,0-2.18-1.22-2.18-5.08,0-4.67,1.2-5.32,2.18-5.32s2.19.65,2.19,5.32C50.27,26.49,49.11,27.71,48.08,27.71Z"/><path class="cls-2" d="M48.09,14.65a2.64,2.64,0,0,0,1.11-2.36,3.23,3.23,0,0,0-1.11-2.64A12.78,12.78,0,0,0,47,12.29,2.43,2.43,0,0,0,48.09,14.65Z"/></svg>