<svg id="Layer_1" data-name="Layer 1" xmlns="http://www.w3.org/2000/svg" viewBox="0 0 84 84"><defs><style>.cls-1{fill:#f3f3f3;}.cls-2,.cls-4{fill:none;stroke:#e47277;stroke-miterlimit:10;}.cls-2{stroke-width:0.75px;}.cls-3{fill:#e47277;}.cls-4{stroke-width:0.25px;}</style></defs><title>category icons</title><circle class="cls-1" cx="42" cy="42" r="40.3"/><path class="cls-2" d="M21.58,46.64c-.46-.55-.17-2.77-.17-3.53v-8.7a3.08,3.08,0,0,1,3-3.11H59.36a3.08,3.08,0,0,1,3,3.11v8.7c0,.64.33,3,0,3.53Z"/><path class="cls-2" d="M13.51,64.32c-.63-.63-.24-3.2-.24-4.09V50.16c0-2,1.9-3.6,4.23-3.6H66.42c2.32,0,4.23,1.62,4.23,3.6V60.23c0,.74.46,3.51,0,4.09Z"/><path class="cls-2" d="M21.41,39.33s2.95-4,6.89-.76,5.38-1.31,8.31-1.22,1.9,2.7,5.52,2.42,2.46-2.2,5.82-2.2,1.5,2.06,5.55,2.12,2.2-2.35,5.65-2.34a3.34,3.34,0,0,1,3.23,1.82"/><path class="cls-2" d="M13.27,58.58s4.14-5.51,9.65-1c5.31,4.3,7.54-1.79,11.65-1.67s2.65,3.7,7.72,3.32,3.44-3,8.14-3,2.12,2.82,7.79,2.9,3.07-3.2,7.9-3.2a4.7,4.7,0,0,1,4.53,2.49"/><path class="cls-3" d="M31.39,15.69a24.54,24.54,0,0,1,.86-3.44l-.56.05c0-.33.25-.55.76-.65l.69-2.13a1.68,1.68,0,0,0,.12-.43c0-.08,0-.12-.11-.12s-.43.18-.65.54a2,2,0,0,0-.33,1,1.85,1.85,0,0,0,.06.39c-.45,0-.67-.19-.67-.57a1.59,1.59,0,0,1,.62-1.14,1.84,1.84,0,0,1,1.19-.57c.34,0,.5.16.5.47a.71.71,0,0,1-.15.38l-.63,2.12h.51a12.33,12.33,0,0,1,1.5.09c.34-1.19.62-2.05.83-2.56a.68.68,0,0,1,.62-.5c-.3.86-.6,1.89-.9,3.11h.75a1.21,1.21,0,0,1-.85.39,15.82,15.82,0,0,0-.5,3.13,2.59,2.59,0,0,0,.05.47.93.93,0,0,1-.6-.22.9.9,0,0,1-.16-.6A11.63,11.63,0,0,1,35,12.12c-.94,0-1.6,0-2,.05,0,0-.09.08-.13.21s-.12.41-.26.89L32.1,15.1a.83.83,0,0,1-.3.44A.77.77,0,0,1,31.39,15.69Z"/><path class="cls-3" d="M36,14.57a2.43,2.43,0,0,1,.35-1.14,3.8,3.8,0,0,1,.93-1.07,1.84,1.84,0,0,1,1.14-.45,1,1,0,0,1,.61.2.64.64,0,0,1,.24.51q0,.41-.45.42c.19.07.28.15.28.26a1.85,1.85,0,0,1-.23.53,1.5,1.5,0,0,0-.24.64c0,.21.09.31.26.31a1,1,0,0,0,.61-.34,3.54,3.54,0,0,0,.72-1l.16.17a3.57,3.57,0,0,1-.78,1.18,1.38,1.38,0,0,1-1,.44.6.6,0,0,1-.52-.23.88.88,0,0,1-.18-.54,5.19,5.19,0,0,1-.66.7,1,1,0,0,1-.58.22.66.66,0,0,1-.5-.21A.74.74,0,0,1,36,14.57Zm.69,0c0,.18.06.28.19.28a.55.55,0,0,0,.24-.07,1.32,1.32,0,0,0,.27-.2l.26-.26a3.77,3.77,0,0,0,.3-.34l.25-.34.24-.34.21-.29a.08.08,0,0,1,.07,0h0a1.15,1.15,0,0,0,0-.33q0-.45-.36-.45c-.38,0-.76.28-1.16.86A2.79,2.79,0,0,0,36.68,14.62Z"/><path class="cls-3" d="M39.19,17.19a23.8,23.8,0,0,0,.71-2.42c.12-.55.27-1.52.44-2.91a.29.29,0,0,1,0-.12.17.17,0,0,1,.06-.06s.07,0,.13,0a.48.48,0,0,1,.38.14.54.54,0,0,1,.13.35,4.36,4.36,0,0,1-.13.8,1.76,1.76,0,0,1,1.39-1,1,1,0,0,1,.7.27,1,1,0,0,1,.28.74A2.18,2.18,0,0,1,43,14a2.27,2.27,0,0,1-.74.87,1.74,1.74,0,0,1-1.08.37,1,1,0,0,1-.43-.07c-.11,0-.17-.09-.17-.15s.07-.09.2-.09a1.71,1.71,0,0,0,1.28-.58,1.81,1.81,0,0,0,.51-1.22.86.86,0,0,0-.12-.47.39.39,0,0,0-.35-.18,1.11,1.11,0,0,0-.8.45,3.25,3.25,0,0,0-.6.91c-.08.29-.17.63-.26,1l-.24,1q-.09.39-.21.78a2.23,2.23,0,0,1-.23.58c-.09.13-.17.2-.27.2a.4.4,0,0,1-.21-.08C39.24,17.27,39.2,17.23,39.19,17.19Z"/><path class="cls-3" d="M42.72,17.19a23.8,23.8,0,0,0,.71-2.42c.12-.55.27-1.52.44-2.91a.29.29,0,0,1,0-.12.17.17,0,0,1,.06-.06.24.24,0,0,1,.13,0,.48.48,0,0,1,.38.14.54.54,0,0,1,.13.35,5.05,5.05,0,0,1-.12.8,1.73,1.73,0,0,1,1.38-1,.94.94,0,0,1,.7.27,1,1,0,0,1,.28.74,2.3,2.3,0,0,1-.25,1,2.39,2.39,0,0,1-.75.87,1.74,1.74,0,0,1-1.08.37,1,1,0,0,1-.43-.07c-.11,0-.17-.09-.17-.15s.07-.09.21-.09a1.69,1.69,0,0,0,1.27-.58,1.81,1.81,0,0,0,.51-1.22.86.86,0,0,0-.12-.47.38.38,0,0,0-.35-.18,1.13,1.13,0,0,0-.8.45,3.25,3.25,0,0,0-.6.91c-.08.29-.17.63-.26,1l-.23,1-.21.78a2.6,2.6,0,0,1-.24.58c-.09.13-.17.2-.26.2a.4.4,0,0,1-.22-.08C42.77,17.27,42.73,17.23,42.72,17.19Z"/><path class="cls-3" d="M46.9,16.83a.84.84,0,0,1,.12-.42,2.34,2.34,0,0,1,.26-.34,2.19,2.19,0,0,1,.43-.31l.44-.24.46-.24A12.88,12.88,0,0,0,49,13.91q-.66,1-1.23,1a.79.79,0,0,1-.51-.18.64.64,0,0,1-.22-.55,3.43,3.43,0,0,1,.29-1.2c.2-.48.37-.72.5-.72a.61.61,0,0,1,.26.09.38.38,0,0,1,.2.2,3.88,3.88,0,0,0-.35.77,2.6,2.6,0,0,0-.19.84q0,.33.24.33h0c.31,0,.69-.36,1.12-1.07a1,1,0,0,0,0-.2q0-.18.06-.3a.67.67,0,0,1,.16-.24.38.38,0,0,1,.29-.12l.27,0a6.17,6.17,0,0,1-.2,1c-.13.5-.28,1-.45,1.45a2.44,2.44,0,0,0,1.37-1.49l.15.12a2.75,2.75,0,0,1-1.63,1.7c-.58,1.41-1.15,2.12-1.71,2.12a.59.59,0,0,1-.41-.15A.52.52,0,0,1,46.9,16.83Zm.34,0c0,.16,0,.24.16.24s.28-.12.48-.37a5,5,0,0,0,.57-1C47.64,16.08,47.24,16.47,47.24,16.83Z"/><path class="cls-3" d="M27.61,22.89a.08.08,0,0,1,.09-.09.31.31,0,0,1,.12,0,1,1,0,0,0,.27.06,2.76,2.76,0,0,0,.44,0A4.55,4.55,0,0,0,31,22.34a1.65,1.65,0,0,0,1-1.36c0-.7-.71-1.05-2.14-1.05h-.63c-.09.32-.21.79-.37,1.42s-.3,1.09-.39,1.36a.68.68,0,0,1-.44-.14.42.42,0,0,1-.18-.34,1.27,1.27,0,0,1,.09-.41l0-.1s.07-.21.17-.54l.3-1,.36-1.08c.14-.4.29-.8.45-1.18s.3-.72.44-1a3.94,3.94,0,0,0-.55.18l-.38.19a.46.46,0,0,1-.18.07.33.33,0,0,1-.21-.12.36.36,0,0,1-.13-.21c.26-.11.48-.2.64-.25a5.09,5.09,0,0,1,.66-.17,4.74,4.74,0,0,1,1.4-.05,3.65,3.65,0,0,1,.57.12A1.79,1.79,0,0,1,32,17a1.17,1.17,0,0,1,.37.42,1.21,1.21,0,0,1,.15.62c0,.82-.6,1.38-1.79,1.67a2.64,2.64,0,0,1,1.41.54,1.19,1.19,0,0,1,.44.88,1.73,1.73,0,0,1-.41,1.1,3,3,0,0,1-1,.81,6.58,6.58,0,0,1-1.26.46,4.81,4.81,0,0,1-1.19.17C28,23.65,27.62,23.4,27.61,22.89Zm1.62-3.28a5.47,5.47,0,0,0,.95-.12,3.6,3.6,0,0,0,.82-.28,1.53,1.53,0,0,0,.61-.51,1.33,1.33,0,0,0,.22-.75q0-1.05-1.62-1.05A16.88,16.88,0,0,0,29.23,19.61Z"/><path class="cls-3" d="M32.75,22.41a3.25,3.25,0,0,1,.18-.92,4.34,4.34,0,0,1,.49-1.07q.3-.48.6-.48a.25.25,0,0,1,.19.07.22.22,0,0,1,.07.19,1.37,1.37,0,0,1-.22.48,9,9,0,0,0-.43.83,1.86,1.86,0,0,0-.22.8.57.57,0,0,0,.09.37.4.4,0,0,0,.29.1c.45,0,.89-.45,1.34-1.36l.12.15a3.21,3.21,0,0,1-.75,1.2,1.43,1.43,0,0,1-1,.43A.7.7,0,0,1,33,23,.84.84,0,0,1,32.75,22.41Zm1.33-3.53a.45.45,0,0,1,.22-.35.76.76,0,0,1,.47-.16q.36,0,.36.33a.46.46,0,0,1-.19.35.63.63,0,0,1-.43.18.49.49,0,0,1-.3-.09A.29.29,0,0,1,34.08,18.88Z"/><path class="cls-3" d="M34.9,21.78a10.57,10.57,0,0,0,.69-1.59.36.36,0,0,1-.08-.24.75.75,0,0,1,.13-.43c.08-.14.17-.21.25-.21a.21.21,0,0,1,.16.11.38.38,0,0,1,.06.18.67.67,0,0,1-.06.17.66.66,0,0,0-.07.15c0,.06.06.12.16.19a2.57,2.57,0,0,0,.32.22,1,1,0,0,1,.32.31.83.83,0,0,1,.14.46,2,2,0,0,1-.22.78,2,2,0,0,0-.23.63c0,.14.07.2.22.2a1.26,1.26,0,0,0,.83-.43,2.67,2.67,0,0,0,.65-.86l.21.16a3.08,3.08,0,0,1-.82,1.1,1.66,1.66,0,0,1-1.1.48A.77.77,0,0,1,36,23a.6.6,0,0,1-.19-.47,2.37,2.37,0,0,1,.24-.81,2.4,2.4,0,0,0,.24-.76.65.65,0,0,0-.43-.56A11.24,11.24,0,0,1,35,22Z"/><path class="cls-3" d="M38,22.4a6.66,6.66,0,0,1,.5-2.12l-.31-.11V19.9l.22,0a1,1,0,0,0,.2,0,9.32,9.32,0,0,1,.79-1.64c.27-.45.51-.67.7-.67a.23.23,0,0,1,.17.07.21.21,0,0,1,.07.16,2,2,0,0,1-.25.65c-.17.33-.35.68-.55,1l-.31.56a3.84,3.84,0,0,0,.79.08,5.56,5.56,0,0,0,1.1-.13A13.48,13.48,0,0,1,42.2,17.7c.42-.7.77-1.05,1-1.05.1,0,.18.06.24.19a1,1,0,0,1,.1.43,3.37,3.37,0,0,1-.58,1.6,3.89,3.89,0,0,1-1.32,1.42,4.76,4.76,0,0,0-.28,1,5.65,5.65,0,0,0-.12,1c.51-1.35,1.09-2,1.74-2a.67.67,0,0,1,.55.23.83.83,0,0,1,.19.56,2.49,2.49,0,0,1-.17.79,2.55,2.55,0,0,0-.18.67c0,.2.08.29.23.29a1.06,1.06,0,0,0,.69-.44,3.36,3.36,0,0,0,.65-1l.17.16a3.75,3.75,0,0,1-.76,1.18,1.37,1.37,0,0,1-1,.47.68.68,0,0,1-.5-.18.58.58,0,0,1-.18-.45,3.32,3.32,0,0,1,.13-.64,2.89,2.89,0,0,0,.12-.66q0-.39-.3-.39c-.18,0-.36.13-.53.38a3.49,3.49,0,0,0-.4.85,4.83,4.83,0,0,1-.36.83c-.13.26-.26.38-.39.38s-.25-.13-.32-.39a2.76,2.76,0,0,1-.1-.72,3,3,0,0,1-.82.86,1.7,1.7,0,0,1-1,.32.82.82,0,0,1-.63-.24A.94.94,0,0,1,38,22.4Zm.66-.2a1.12,1.12,0,0,0,.09.53.39.39,0,0,0,.36.16,1.29,1.29,0,0,0,.86-.39,3.22,3.22,0,0,0,.75-1.08,5.64,5.64,0,0,1,.27-1,5,5,0,0,1-1,.11,4.63,4.63,0,0,1-.94-.1A4.48,4.48,0,0,0,38.61,22.2Zm3.23-2.47a4.54,4.54,0,0,0,.94-1.19,2.6,2.6,0,0,0,.39-1.06,2.17,2.17,0,0,0-.61.73A6.67,6.67,0,0,0,41.84,19.73Z"/><path class="cls-3" d="M44.63,22.39A2.31,2.31,0,0,1,45,21.27a3.62,3.62,0,0,1,.93-1.1,1.8,1.8,0,0,1,1.14-.48c.28,0,.42.1.42.29a.23.23,0,0,1-.1.21.35.35,0,0,0-.3-.1,1.22,1.22,0,0,0-.85.41,3,3,0,0,0-.65.91,2.36,2.36,0,0,0-.22.86c0,.24.09.36.28.36s.54-.21.9-.63a6,6,0,0,0,.92-1.68l.34-.88.33-.83c.14-.34.26-.6.35-.8l.32-.61a2.34,2.34,0,0,1,.32-.46.41.41,0,0,1,.28-.15.21.21,0,0,1,.16.08.26.26,0,0,1,.08.19,3.16,3.16,0,0,1-.31.84l-.66,1.41A14.48,14.48,0,0,0,48,20.76a5.1,5.1,0,0,0-.3,1.55.93.93,0,0,0,0,.29.14.14,0,0,0,.14.07,1.07,1.07,0,0,0,.66-.35,3.13,3.13,0,0,0,.66-.94l.16.14a3,3,0,0,1-.77,1.18,1.46,1.46,0,0,1-1,.46c-.41,0-.62-.26-.62-.78a3.06,3.06,0,0,1,.07-.57,4.7,4.7,0,0,1-.87,1,1.34,1.34,0,0,1-.82.38.72.72,0,0,1-.5-.21A.82.82,0,0,1,44.63,22.39Z"/><path class="cls-3" d="M48.75,22.57a2.29,2.29,0,0,1,.35-1.14A3.53,3.53,0,0,1,50,20.35a1.88,1.88,0,0,1,1.14-.45,1,1,0,0,1,.61.2.66.66,0,0,1,.24.52q0,.4-.45.42c.19.06.29.15.29.25a1.71,1.71,0,0,1-.24.53,1.55,1.55,0,0,0-.24.64c0,.21.09.32.26.32a1.05,1.05,0,0,0,.61-.35,3.68,3.68,0,0,0,.73-1l.16.16a3.48,3.48,0,0,1-.79,1.18,1.38,1.38,0,0,1-1,.45.62.62,0,0,1-.52-.24.84.84,0,0,1-.18-.54,5.19,5.19,0,0,1-.66.7.9.9,0,0,1-.58.22.69.69,0,0,1-.5-.2A.76.76,0,0,1,48.75,22.57Zm.68,0c0,.19.07.28.2.28a.43.43,0,0,0,.23-.07,1.11,1.11,0,0,0,.27-.19l.27-.27a4.09,4.09,0,0,0,.29-.34l.25-.33.25-.34.2-.29s0,0,.07,0h0a1,1,0,0,0,0-.32c0-.31-.12-.46-.36-.46s-.76.29-1.16.86A2.82,2.82,0,0,0,49.43,22.61Z"/><path class="cls-3" d="M52.6,24.82a.78.78,0,0,1,.12-.41,1.58,1.58,0,0,1,.25-.34,2.17,2.17,0,0,1,.43-.32l.44-.24.46-.23a13.28,13.28,0,0,0,.41-1.38c-.44.64-.84,1-1.23,1a.79.79,0,0,1-.51-.17.66.66,0,0,1-.22-.56A3.43,3.43,0,0,1,53,20.94c.2-.49.37-.73.5-.73a.54.54,0,0,1,.26.1c.11.06.18.12.2.19a4.18,4.18,0,0,0-.35.77,2.64,2.64,0,0,0-.19.85c0,.21.08.32.24.32h0c.31,0,.69-.35,1.12-1.06a1.23,1.23,0,0,0,0-.2c0-.12,0-.22.06-.31a.67.67,0,0,1,.16-.24.38.38,0,0,1,.29-.12l.27,0a6.68,6.68,0,0,1-.2,1q-.2.73-.45,1.44a2.42,2.42,0,0,0,1.37-1.49l.15.13a2.73,2.73,0,0,1-1.63,1.69c-.57,1.42-1.14,2.12-1.71,2.12a.59.59,0,0,1-.41-.15A.52.52,0,0,1,52.6,24.82Zm.33,0c0,.16,0,.25.16.25s.28-.13.48-.38a5,5,0,0,0,.57-1C53.33,24.08,52.93,24.46,52.93,24.82Z"/><path class="cls-4" d="M57.08,20.89l-.15-.13a.83.83,0,0,0-.4-.19.9.9,0,0,0-.76-.92,2.1,2.1,0,0,0-.39,0,1.3,1.3,0,0,0-.75.23,1.45,1.45,0,0,0-.42-.34,1.43,1.43,0,0,0-.67-.19,1.12,1.12,0,0,0-.89.48,1.37,1.37,0,0,0-.33-.39,1.81,1.81,0,0,0-1.16-.4,2.7,2.7,0,0,0-1.67.63l-.14.13a2,2,0,0,1,.11-.26l.66-1.41a3,3,0,0,0,.4-1.23,1.16,1.16,0,0,0-.51-1,3.45,3.45,0,0,0,1.66-2,1,1,0,0,0-.28-1l-.15-.12a.75.75,0,0,0-.4-.19.89.89,0,0,0-.76-.92l-.39-.05a1.24,1.24,0,0,0-.75.24,1.31,1.31,0,0,0-.42-.34,1.45,1.45,0,0,0-.67-.2,1,1,0,0,0-.7.29,1.81,1.81,0,0,0-1.3-.52,2.18,2.18,0,0,0-.72.13l0,0a1.31,1.31,0,0,0-1-.44,1.11,1.11,0,0,0-.58.15,1.06,1.06,0,0,0-.36.37,1.87,1.87,0,0,0-.82-.19,2.18,2.18,0,0,0-.72.13l0,0a1.32,1.32,0,0,0-1-.44,1.09,1.09,0,0,0-.58.15,1.06,1.06,0,0,0-.42.49h0A1.83,1.83,0,0,0,38.41,11a2.53,2.53,0,0,0-1.22.34.9.9,0,0,0-.42-.44c.2-.75.4-1.42.61-2a.91.91,0,0,0-.11-.83.87.87,0,0,0-.72-.39,1.52,1.52,0,0,0-1.42,1.05,18.82,18.82,0,0,0-.67,1.95h-.18l.24-.83a1.43,1.43,0,0,0,.23-.77,1.32,1.32,0,0,0-1.38-1.38,2.71,2.71,0,0,0-1.77.79,2.47,2.47,0,0,0-.92,1.83,1.5,1.5,0,0,0,.44,1.09,1.42,1.42,0,0,0-.31.9.92.92,0,0,0,.3.68,20.5,20.5,0,0,0-.59,2.58.61.61,0,0,0,0,.14h-.18a5.61,5.61,0,0,0-1,.09,5.42,5.42,0,0,0-.78.2q-.27.09-.69.27a.91.91,0,0,0-.55.84,1.21,1.21,0,0,0,.4.86,1.29,1.29,0,0,0,.43.3c-.07.2-.15.41-.22.62L27.54,20l-.46,1.44s0,.12,0,.12a2.28,2.28,0,0,0-.14.72v.08a1,1,0,0,0-.17.58c0,.8.52,1.65,1.94,1.65a5.52,5.52,0,0,0,1.4-.19,6.85,6.85,0,0,0,1.43-.53,4.19,4.19,0,0,0,.67-.42,1.27,1.27,0,0,0,.13.19,1.58,1.58,0,0,0,1.21.5,2.28,2.28,0,0,0,1.58-.66.12.12,0,0,1,0-.05,1.23,1.23,0,0,0,.23.28,1.61,1.61,0,0,0,1.09.4,2.2,2.2,0,0,0,1.12-.31,1.66,1.66,0,0,0,1.23.49,2.55,2.55,0,0,0,1.39-.43,1.09,1.09,0,0,0,.81.36.93.93,0,0,0,.47-.11v6.62a.59.59,0,1,0,1.17,0V23.87a1.65,1.65,0,0,0,.77.18,1.94,1.94,0,0,0,1-.27,1.55,1.55,0,0,0,.94.32,2,2,0,0,0,1.2-.44,1.46,1.46,0,0,0,1,.41,2,2,0,0,0,.85-.2,1.54,1.54,0,0,0,1,.38,1.8,1.8,0,0,0,1.09-.39,1.51,1.51,0,0,0,.85.24,1.93,1.93,0,0,0,.53-.07,1.68,1.68,0,0,0-.2.79A1.44,1.44,0,0,0,52.21,26a1.49,1.49,0,0,0,1,.36c1.17,0,1.91-1.27,2.39-2.36a3.47,3.47,0,0,0,1.79-2.1A.91.91,0,0,0,57.08,20.89Z"/><path class="cls-3" d="M18.11,53a4.19,4.19,0,0,1,1.22-1.81"/><path class="cls-3" d="M18.71,53.13c0-.09.07-.17.1-.26l-.06.15a4.28,4.28,0,0,1,.55-1l-.09.12a4,4,0,0,1,.57-.6.63.63,0,0,0-.89-.89,5,5,0,0,0-1.38,2.09.62.62,0,0,0,.06.48.65.65,0,0,0,.38.29.63.63,0,0,0,.76-.43Z"/><path class="cls-3" d="M37.31,50.89,38,52.38"/><path class="cls-3" d="M36.77,51.21l.72,1.48a.6.6,0,0,0,.37.29.66.66,0,0,0,.48-.06.65.65,0,0,0,.29-.38.73.73,0,0,0-.06-.48l-.72-1.48a.63.63,0,0,0-.37-.29.7.7,0,0,0-.49.06.63.63,0,0,0-.28.38.67.67,0,0,0,.06.48Z"/><path class="cls-3" d="M27.24,55,28,53.89"/><path class="cls-3" d="M27.78,55.29l.74-1.08a.63.63,0,0,0,.07-.48.69.69,0,0,0-.29-.38.67.67,0,0,0-.48-.06l-.15.06a.72.72,0,0,0-.23.23l-.74,1.08a.61.61,0,0,0-.07.48.67.67,0,0,0,.29.37.58.58,0,0,0,.48.06l.15-.06a.61.61,0,0,0,.23-.22Z"/><path class="cls-3" d="M56.62,52.44A3.15,3.15,0,0,1,58,54.35"/><path class="cls-3" d="M56.3,53l.22.16-.13-.1a2.75,2.75,0,0,1,.56.57l-.09-.13a3.63,3.63,0,0,1,.41.72L57.21,54a4.5,4.5,0,0,1,.16.48.62.62,0,0,0,.76.44.65.65,0,0,0,.44-.77,3.85,3.85,0,0,0-1.63-2.29.63.63,0,0,0-.86.22.64.64,0,0,0,.22.85Z"/><path class="cls-3" d="M64,50.71l.78.93"/><path class="cls-3" d="M63.57,51.16l.78.92a.53.53,0,0,0,.2.13.47.47,0,0,0,.24,0,.65.65,0,0,0,.44-.18.68.68,0,0,0,.19-.44l0-.17a.61.61,0,0,0-.16-.28l-.77-.92a.57.57,0,0,0-.21-.13.47.47,0,0,0-.24,0,.67.67,0,0,0-.44.18.62.62,0,0,0-.18.44l0,.17a.61.61,0,0,0,.16.28Z"/><path class="cls-3" d="M43.66,53l.74,1"/><path class="cls-3" d="M43.12,53.34l.74,1a.4.4,0,0,0,.16.18.53.53,0,0,0,.21.11.66.66,0,0,0,.48-.06.61.61,0,0,0,.29-.38.62.62,0,0,0-.06-.48l-.74-1a.44.44,0,0,0-.16-.17.36.36,0,0,0-.21-.11.61.61,0,0,0-.49.06.58.58,0,0,0-.28.37.57.57,0,0,0,.06.48Z"/><path class="cls-3" d="M49.08,51.07l.64.69"/><path class="cls-3" d="M48.64,51.51l.64.69a.46.46,0,0,0,.2.13.39.39,0,0,0,.24.05.42.42,0,0,0,.24-.05.53.53,0,0,0,.2-.13.6.6,0,0,0,.18-.44l0-.17a.57.57,0,0,0-.16-.27l-.64-.69a.34.34,0,0,0-.2-.13.48.48,0,0,0-.24-.06.53.53,0,0,0-.24.06.37.37,0,0,0-.2.13.59.59,0,0,0-.18.44l0,.16a.61.61,0,0,0,.16.28Z"/><path class="cls-3" d="M24.88,34.93l1.19-1.29"/><path class="cls-3" d="M25.32,35.37l1.19-1.29a.64.64,0,0,0,0-.89.62.62,0,0,0-.44-.18.65.65,0,0,0-.44.18l-1.2,1.3a.65.65,0,0,0-.18.44.67.67,0,0,0,.18.44.63.63,0,0,0,.45.18.6.6,0,0,0,.44-.18Z"/><path class="cls-3" d="M40.84,34.41l.89,1.33"/><path class="cls-3" d="M40.3,34.72l.89,1.33a.63.63,0,0,0,.37.29.66.66,0,0,0,.48-.06.65.65,0,0,0,.29-.38.62.62,0,0,0-.06-.48l-.89-1.33A.69.69,0,0,0,41,33.8a.62.62,0,0,0-.48.07.64.64,0,0,0-.29.37.62.62,0,0,0,.07.48Z"/><path class="cls-3" d="M47.25,33.52a1.27,1.27,0,0,1,.63.68"/><path class="cls-3" d="M46.93,34.06a.74.74,0,0,1,.21.13l-.12-.1a1.25,1.25,0,0,1,.23.23l-.09-.12a1.28,1.28,0,0,1,.16.28l-.06-.15v0a.53.53,0,0,0,.11.21.55.55,0,0,0,.18.16.49.49,0,0,0,.23.08.52.52,0,0,0,.25,0,.63.63,0,0,0,.38-.28l.06-.15a.62.62,0,0,0,0-.33,2.48,2.48,0,0,0-.17-.37,2.34,2.34,0,0,0-.24-.31,2.26,2.26,0,0,0-.29-.25,1,1,0,0,0-.22-.13.45.45,0,0,0-.23-.08.53.53,0,0,0-.25,0,.45.45,0,0,0-.21.12.44.44,0,0,0-.16.17.58.58,0,0,0-.06.48.6.6,0,0,0,.28.38Z"/><path class="cls-3" d="M59.3,33.11a1.15,1.15,0,0,1,.63.82"/><path class="cls-3" d="M59,33.65l.18.11-.12-.09a1,1,0,0,1,.21.21l-.1-.13a1.07,1.07,0,0,1,.16.27l-.06-.15a1.87,1.87,0,0,1,.07.22.43.43,0,0,0,.11.21.46.46,0,0,0,.17.17.48.48,0,0,0,.24.07.49.49,0,0,0,.24,0,.62.62,0,0,0,.38-.29l.06-.15a.62.62,0,0,0,0-.33,1.9,1.9,0,0,0-.14-.4,2.2,2.2,0,0,0-.42-.55,1.67,1.67,0,0,0-.35-.24.49.49,0,0,0-.23-.08.52.52,0,0,0-.25,0,.43.43,0,0,0-.21.11.46.46,0,0,0-.17.17.67.67,0,0,0-.06.48.62.62,0,0,0,.29.38Z"/><path class="cls-3" d="M53.25,34.86v.67a.53.53,0,0,0,.06.24.47.47,0,0,0,.12.2.57.57,0,0,0,.21.13.47.47,0,0,0,.24,0l.16,0a.71.71,0,0,0,.28-.16.69.69,0,0,0,.18-.44v-.67a.42.42,0,0,0,0-.24.57.57,0,0,0-.33-.33.42.42,0,0,0-.24,0l-.17,0a.61.61,0,0,0-.28.16.65.65,0,0,0-.18.44Z"/><path class="cls-3" d="M32.78,34.53l-.17,1.32"/><path class="cls-3" d="M32.15,34.53,32,35.85a.63.63,0,0,0,.18.45.67.67,0,0,0,.44.18.65.65,0,0,0,.44-.18l.1-.13a.59.59,0,0,0,.09-.32l.16-1.32a.61.61,0,0,0-.62-.62.67.67,0,0,0-.45.18l-.09.13a.59.59,0,0,0-.09.31Z"/><path class="cls-3" d="M26.17,49.27v1.21a.69.69,0,0,0,.18.45.67.67,0,0,0,.45.18.65.65,0,0,0,.44-.18.69.69,0,0,0,.18-.45V49.27a.69.69,0,0,0-.18-.45.64.64,0,0,0-.89,0,.69.69,0,0,0-.18.45Z"/></svg>