<svg id="Layer_1" data-name="Layer 1" xmlns="http://www.w3.org/2000/svg" viewBox="0 0 84 84"><defs><style>.cls-1,.cls-2{fill:none;stroke:#E47277;stroke-miterlimit:10;}.cls-1{stroke-width:1.25px;}.cls-2{stroke-width:0.05px;}</style></defs><title>designer-07</title><path class="cls-1" d="M48.42,11.22c1.32,0,1.9,1,1.9,2.34V26.25H33.67V13.56a2.4,2.4,0,0,1,1.55-2.24"/><path class="cls-1" d="M26.72,26.25H57.28a2.06,2.06,0,0,1,2.06,2.06V43a0,0,0,0,1,0,0H24.66a0,0,0,0,1,0,0V28.31A2.06,2.06,0,0,1,26.72,26.25Z"/><path class="cls-1" d="M19.47,43h45A2.07,2.07,0,0,1,66.58,45V59.7a0,0,0,0,1,0,0H17.42a0,0,0,0,1,0,0V45A2.05,2.05,0,0,1,19.47,43Z"/><path class="cls-1" d="M10.76,59.7H73.22a2.08,2.08,0,0,1,2.08,2.08V76.42a0,0,0,0,1,0,0H8.7a0,0,0,0,1,0,0V61.76A2.06,2.06,0,0,1,10.76,59.7Z"/><path class="cls-1" d="M41.85,11.31S35,4.92,35.35,10s.31,7.14,2,7.14,4.84-2.36,4.84-2.36a30.49,30.49,0,0,1-.78,8.32s-6.22-3.19.87-9c0,0,4.08.91,3.59,6.32,0,0-1.75,2.89-2.57,2.3,0,0-1.39-7-.29-9.33,0,0,.46-1.48-.43-2,0,0,4.47-6.38,5.85-2.44,0,0,1.9,14.17-5.42,4.91C43,13.77,40.16,14.91,41.85,11.31Z"/><path class="cls-1" d="M24.66,33.53s2.67,10.37,5.45,2.63,5.23.79,5.23.79,1.9,6.94,3.49.2,3.57-8.66,5-4.23,2.58,5.82,3.37,3.24,2.38-8.33,4.36-2.58,3.37,6.74,3.57,4.16,2.38-8.72,4.26-5"/><path class="cls-1" d="M17.42,49.56s3.79,10.36,7.73,2.63,7.41.78,7.41.78,2.7,6.94,4.95.2,5.05-8.66,7-4.23,3.65,5.83,4.77,3.25,3.37-8.33,6.18-2.58,4.78,6.73,5.06,4.16,3.37-8.72,6-5"/><path class="cls-1" d="M75.3,66.9s-5.14,10.37-10.47,2.63-10,.79-10,.79-3.66,6.94-6.7.2-6.85-8.66-9.52-4.23-4.94,5.82-6.46,3.24S27.54,61.21,23.73,67s-6.47,6.74-6.85,4.17-4.56-8.73-8.18-5"/><path class="cls-2" d="M14.19,58.46a1.34,1.34,0,0,1,.31-1.81c.53-.25,1.24.16,1.59.91s-.31,1.81-.31,1.81S14.54,59.21,14.19,58.46Z"/><path class="cls-2" d="M12.41,58.16A1.6,1.6,0,0,1,12.79,56c.63-.3,1.48.19,1.91,1.09s-.38,2.17-.38,2.17S12.84,59.06,12.41,58.16Z"/><path class="cls-2" d="M21.77,41.51c-.35-.75-.21-1.56.31-1.8s1.24.16,1.59.91-.31,1.8-.31,1.8S22.12,42.26,21.77,41.51Z"/><path class="cls-2" d="M20,41.22c-.42-.9-.25-1.87.38-2.16s1.48.19,1.91,1.09-.38,2.16-.38,2.16S20.42,42.12,20,41.22Z"/><path class="cls-2" d="M30.69,24.86c-.35-.75-.21-1.56.31-1.8s1.24.16,1.59.91-.31,1.8-.31,1.8S31,25.61,30.69,24.86Z"/><path class="cls-2" d="M28.91,24.57c-.42-.9-.25-1.87.38-2.16s1.48.19,1.91,1.09-.38,2.16-.38,2.16S29.34,25.47,28.91,24.57Z"/><path class="cls-2" d="M53.36,24.81A1.33,1.33,0,0,0,53.05,23c-.52-.25-1.24.16-1.59.91s.31,1.81.31,1.81S53,25.56,53.36,24.81Z"/><path class="cls-2" d="M55.14,24.52c.42-.9.26-1.87-.37-2.17s-1.49.19-1.91,1.09.37,2.17.37,2.17S54.72,25.42,55.14,24.52Z"/><path class="cls-2" d="M62.37,41.46a1.35,1.35,0,0,0-.31-1.81c-.53-.25-1.24.16-1.59.91s.31,1.81.31,1.81S62,42.21,62.37,41.46Z"/><path class="cls-2" d="M64.15,41.17A1.61,1.61,0,0,0,63.77,39c-.63-.3-1.48.19-1.91,1.09s.38,2.17.38,2.17S63.72,42.07,64.15,41.17Z"/><path class="cls-2" d="M70.08,58.4a1.34,1.34,0,0,0-.32-1.81c-.52-.24-1.23.16-1.59.91s.32,1.81.32,1.81S69.72,59.15,70.08,58.4Z"/><path class="cls-2" d="M71.85,58.11a1.6,1.6,0,0,0-.37-2.17c-.63-.29-1.49.2-1.91,1.1S70,59.2,70,59.2,71.43,59,71.85,58.11Z"/></svg>