<?xml version="1.0" encoding="iso-8859-1"?>
<!-- Generator: Adobe Illustrator 23.0.1, SVG Export Plug-In . SVG Version: 6.00 Build 0)  -->
<svg version="1.1" id="Layer_1" xmlns="http://www.w3.org/2000/svg" xmlns:xlink="http://www.w3.org/1999/xlink" x="0px" y="0px"
	 viewBox="-20 160 459 458" style="enable-background:new -20 160 459 458;" xml:space="preserve" fill="#4F4F4F">
<g>
	<path style="stroke:#000000;stroke-width:15;stroke-miterlimit:10;" d="M207,221.4c-23.531,0-42.667,19.135-42.667,42.667
		s19.135,42.667,42.667,42.667s42.667-19.135,42.667-42.667S230.531,221.4,207,221.4z M207,285.4
		c-11.76,0-21.333-9.573-21.333-21.333c0-11.76,9.573-21.333,21.333-21.333s21.333,9.573,21.333,21.333
		C228.333,275.827,218.76,285.4,207,285.4z"/>
	<path style="stroke:#000000;stroke-width:15;stroke-miterlimit:10;" d="M79,221.4c-23.531,0-42.667,19.135-42.667,42.667
		S55.469,306.733,79,306.733s42.667-19.135,42.667-42.667S102.531,221.4,79,221.4z M79,285.4c-11.76,0-21.333-9.573-21.333-21.333
		c0-11.76,9.573-21.333,21.333-21.333s21.333,9.573,21.333,21.333C100.333,275.827,90.76,285.4,79,285.4z"/>
	<path style="stroke:#000000;stroke-width:15;stroke-miterlimit:10;" d="M335,306.733c23.531,0,42.667-19.135,42.667-42.667
		S358.531,221.4,335,221.4s-42.667,19.135-42.667,42.667S311.469,306.733,335,306.733z M335,242.733
		c11.76,0,21.333,9.573,21.333,21.333c0,11.76-9.573,21.333-21.333,21.333s-21.333-9.573-21.333-21.333
		C313.667,252.306,323.24,242.733,335,242.733z"/>
	<path style="stroke:#000000;stroke-width:15;stroke-miterlimit:10;" d="M207,349.4c-23.531,0-42.667,19.135-42.667,42.667
		s19.135,42.667,42.667,42.667s42.667-19.135,42.667-42.667S230.531,349.4,207,349.4z M207,413.4
		c-11.76,0-21.333-9.573-21.333-21.333c0-11.76,9.573-21.333,21.333-21.333s21.333,9.573,21.333,21.333
		C228.333,403.827,218.76,413.4,207,413.4z"/>
	<path style="stroke:#000000;stroke-width:15;stroke-miterlimit:10;" d="M79,349.4c-23.531,0-42.667,19.135-42.667,42.667
		S55.469,434.733,79,434.733s42.667-19.135,42.667-42.667S102.531,349.4,79,349.4z M79,413.4c-11.76,0-21.333-9.573-21.333-21.333
		c0-11.76,9.573-21.333,21.333-21.333s21.333,9.573,21.333,21.333C100.333,403.827,90.76,413.4,79,413.4z"/>
	<path style="stroke:#000000;stroke-width:15;stroke-miterlimit:10;" d="M335,349.4c-23.531,0-42.667,19.135-42.667,42.667
		s19.135,42.667,42.667,42.667s42.667-19.135,42.667-42.667S358.531,349.4,335,349.4z M335,413.4
		c-11.76,0-21.333-9.573-21.333-21.333c0-11.76,9.573-21.333,21.333-21.333s21.333,9.573,21.333,21.333
		C356.333,403.827,346.76,413.4,335,413.4z"/>
	<path style="stroke:#000000;stroke-width:15;stroke-miterlimit:10;" d="M207,477.4c-23.531,0-42.667,19.135-42.667,42.667
		s19.135,42.667,42.667,42.667s42.667-19.135,42.667-42.667S230.531,477.4,207,477.4z M207,541.4
		c-11.76,0-21.333-9.573-21.333-21.333s9.573-21.333,21.333-21.333s21.333,9.573,21.333,21.333S218.76,541.4,207,541.4z"/>
	<path style="stroke:#000000;stroke-width:15;stroke-miterlimit:10;" d="M79,477.4c-23.531,0-42.667,19.135-42.667,42.667
		S55.469,562.733,79,562.733s42.667-19.135,42.667-42.667S102.531,477.4,79,477.4z M79,541.4c-11.76,0-21.333-9.573-21.333-21.333
		S67.24,498.733,79,498.733s21.333,9.573,21.333,21.333S90.76,541.4,79,541.4z"/>
	<path style="stroke:#000000;stroke-width:15;stroke-miterlimit:10;" d="M335,477.4c-23.531,0-42.667,19.135-42.667,42.667
		s19.135,42.667,42.667,42.667s42.667-19.135,42.667-42.667S358.531,477.4,335,477.4z M335,541.4
		c-11.76,0-21.333-9.573-21.333-21.333s9.573-21.333,21.333-21.333s21.333,9.573,21.333,21.333S346.76,541.4,335,541.4z"/>
</g>
</svg>
