<svg xmlns="http://www.w3.org/2000/svg" viewBox="0 0 80.59 80.59"><defs><style>.cls-1{fill:#f3f3f3;}.cls-2{fill:none;stroke:#E3323A;stroke-miterlimit:10;stroke-width:0.75px;}.cls-3{fill:#E3323A;}</style></defs><title>Asset 6</title><g id="Layer_2" data-name="Layer 2"><g id="Layer_1-2" data-name="Layer 1"><circle class="cls-1" cx="40.3" cy="40.3" r="40.3"/><ellipse class="cls-2" cx="46.59" cy="44.45" rx="6.08" ry="6.96"/><path class="cls-2" d="M40.43,44.45a7.78,7.78,0,0,1,.82-3.5A6,6,0,0,0,36,37.49c-3.36,0-6.08,3.12-6.08,7s2.72,7,6.08,7A6,6,0,0,0,41.25,48,7.79,7.79,0,0,1,40.43,44.45Z"/><ellipse class="cls-2" cx="36.69" cy="43.84" rx="1.64" ry="2.14"/><ellipse class="cls-3" cx="36.64" cy="43.84" rx="0.64" ry="0.84"/><ellipse class="cls-2" cx="46.78" cy="43.55" rx="1.64" ry="2.14"/><path class="cls-2" d="M61,56V41.46a1.21,1.21,0,0,0,0-.19c1-.66,1.6-1.39,1.6-2.14,0-1.52-2.29-2.91-6-3.94v-6a2.07,2.07,0,0,0-2.07-2.07h0a2.07,2.07,0,0,0-2.06,2.07V34.3a69.51,69.51,0,0,0-8.44-.85V26.71a2.07,2.07,0,0,0-2.06-2.07h-.55a3.91,3.91,0,0,0,2.37-4.25,5.83,5.83,0,0,0-2.35-3.83c-.45,1.87-2.22,2.79-2,4.81a4.29,4.29,0,0,0,1.9,3.27h-.37a2.07,2.07,0,0,0-2.07,2.07v6.66a79.12,79.12,0,0,0-8.41.57V29.62a2.07,2.07,0,0,0-1.92-2.06,3.79,3.79,0,0,0,2.14-4,5.63,5.63,0,0,0-2.25-3.66c-.43,1.79-2.12,2.67-1.93,4.6a4.16,4.16,0,0,0,1.75,3.08,2.07,2.07,0,0,0-1.92,2.06v5c-5.15,1.05-8.45,2.68-8.45,4.51,0,.87.75,1.7,2.1,2.44V56c-1.19.7-1.85,1.48-1.85,2.29,0,3.18,10,5.77,22.38,5.77S62.8,61.45,62.8,58.27C62.8,57.46,62.14,56.68,61,56Z"/><path class="cls-2" d="M54.26,27.09A2.78,2.78,0,0,0,56,24a4.17,4.17,0,0,0-1.67-2.73c-.33,1.33-1.59,2-1.45,3.43A3.08,3.08,0,0,0,54.26,27.09Z"/><path class="cls-2" d="M52.5,46c1.28-.36,1.94-1.72,3.27-4.28.72-1.39,3.45,9.17,5.17-.43"/><path class="cls-2" d="M19.9,41.57s-.06,7.71,4.24.56c.94-1.56,2.11,8.33,6.27-.43.1-.21.16-.44.29-.66"/><ellipse class="cls-3" cx="46.78" cy="43.84" rx="0.64" ry="0.84"/><path class="cls-2" d="M30.09,52.47s10.81,6.76,20.83,0a20.9,20.9,0,0,1-3.87,3.44C43.46,58.39,38,60.48,30.09,52.47Z"/></g></g></svg>