<svg xmlns="http://www.w3.org/2000/svg" viewBox="0 0 80.59 80.59"><defs><style>.cls-1{fill:#f3f3f3;}.cls-2,.cls-3,.cls-5{fill:none;stroke:#E3323A;stroke-miterlimit:10;}.cls-2{stroke-width:0.75px;}.cls-4{fill:#E3323A;}.cls-5{stroke-width:0.5px;}</style></defs><title>Asset 5</title><g id="Layer_2" data-name="Layer 2"><g id="Layer_1-2" data-name="Layer 1"><circle class="cls-1" cx="40.3" cy="40.3" r="40.3"/><path class="cls-2" d="M50.67,30.23A14.76,14.76,0,0,0,39.27,39H23.45V30.59a1.78,1.78,0,0,1,1.77-1.79H48.94A1.77,1.77,0,0,1,50.67,30.23Z"/><path class="cls-2" d="M38,44.93a14.68,14.68,0,0,0,.59,4.16H18V40.73A1.78,1.78,0,0,1,19.77,39h19.5A14.88,14.88,0,0,0,38,44.93Z"/><path class="cls-2" d="M48.82,59.24h-36V50.87a1.77,1.77,0,0,1,1.76-1.78H38.62A14.78,14.78,0,0,0,48.82,59.24Z"/><path class="cls-2" d="M67.8,44.89A14.82,14.82,0,0,1,53,59.69a14.64,14.64,0,0,1-3.94-.54A14.82,14.82,0,0,1,38.78,49a14.61,14.61,0,0,1-.59-4.15A14.78,14.78,0,0,1,50.91,30.23,14.35,14.35,0,0,1,53,30.08,14.81,14.81,0,0,1,67.8,44.89Z"/><line class="cls-3" x1="29.69" y1="28.73" x2="29.69" y2="22.49"/><line class="cls-3" x1="44.78" y1="28.73" x2="44.78" y2="22.49"/><path class="cls-4" d="M29.72,20.91a2.37,2.37,0,0,1-.24.79.71.71,0,0,0,.24.79A1.14,1.14,0,0,0,30,21.7,1.1,1.1,0,0,0,29.72,20.91Z"/><line class="cls-3" x1="37.13" y1="28.73" x2="37.13" y2="22.49"/><path class="cls-4" d="M37.16,20.91a2.16,2.16,0,0,1-.24.79.71.71,0,0,0,.24.79,1.09,1.09,0,0,0,.24-.79A1.05,1.05,0,0,0,37.16,20.91Z"/><path class="cls-4" d="M44.81,20.91a2.37,2.37,0,0,1-.24.79.71.71,0,0,0,.24.79A1.14,1.14,0,0,0,45,21.7,1.1,1.1,0,0,0,44.81,20.91Z"/><path class="cls-2" d="M67.34,44.89a14.35,14.35,0,0,1-28.61,1.63,14.7,14.7,0,0,1-.09-1.63,14.36,14.36,0,0,1,11.29-14h0A14.71,14.71,0,0,1,53,30.53,14.35,14.35,0,0,1,67.34,44.89Z"/><path class="cls-5" d="M65.73,44.89A12.73,12.73,0,0,1,53,57.62a12.94,12.94,0,0,1-3.75-.56,12.75,12.75,0,0,1-8.9-10.73,11.37,11.37,0,0,1-.08-1.44,12.73,12.73,0,0,1,10-12.45h0A12.88,12.88,0,0,1,53,32.15,12.74,12.74,0,0,1,65.73,44.89Z"/><path class="cls-2" d="M45.38,49.92V49.1l1-1c2.53-2.41,3.67-3.69,3.68-5.18a1.76,1.76,0,0,0-2-1.94,3.35,3.35,0,0,0-2.1.84l-.43-.94a4.35,4.35,0,0,1,2.8-1,2.78,2.78,0,0,1,3,2.88c0,1.83-1.32,3.31-3.41,5.32l-.79.73v0H51.7v1.11Z"/><path class="cls-2" d="M58,49.92v-2.7h-4.6v-.88L57.78,40h1.44v6.15h1.39v1H59.22v2.7Zm0-3.75v-3.3c0-.52,0-1,0-1.56h0c-.31.58-.55,1-.82,1.47l-2.43,3.36v0Z"/><line class="cls-2" x1="52.99" y1="30.53" x2="52.99" y2="33.34"/><line class="cls-2" x1="52.99" y1="56.22" x2="52.99" y2="59.02"/><line class="cls-2" x1="38.73" y1="44.89" x2="41.56" y2="44.89"/><line class="cls-2" x1="64.52" y1="44.89" x2="67.34" y2="44.89"/><line class="cls-2" x1="63.12" y1="34.73" x2="65.18" y2="32.68"/><line class="cls-2" x1="63.74" y1="35.35" x2="65.8" y2="33.3"/><rect class="cls-2" x="65.38" y="31.47" width="0.69" height="2.66" transform="translate(-3.94 56.08) rotate(-45)"/></g></g></svg>